<?xml version="1.0" encoding="UTF-8" standalone="no"?>
<!-- Created with Inkscape (http://www.inkscape.org/) -->

<svg
   version="1.1"
   id="svg1"
   width="1200"
   height="1200"
   viewBox="0 0 1200 1200"
   xmlns="http://www.w3.org/2000/svg"
   xmlns:svg="http://www.w3.org/2000/svg">
  <defs
     id="defs1" />
  <g
     id="g1">
    <g
       id="Layer_3"
       transform="matrix(5.5020252,0,0,5.5020252,6.4551779,5.6365949)"
       style="display:inline">
      <circle
         fill="#ec2127"
         cx="108"
         cy="108"
         r="108"
         id="circle1"
         style="fill:#cc3333;fill-opacity:1" />
    </g>
    <g
       id="Layer_1"
       transform="matrix(5.5020252,0,0,5.5020252,6.4551779,5.6365949)">
      <g
         id="g53">
        <path
           style="fill:#000000;stroke-width:0.181751"
           d="m 114.78407,179.03345 c -0.39985,-0.11936 -1.92656,-0.38317 -3.39269,-0.58626 -1.46613,-0.20309 -3.23878,-0.48714 -3.93923,-0.63122 -0.70045,-0.14408 -2.17263,-0.35172 -3.27152,-0.46142 -4.389913,-0.43824 -8.366162,-1.44313 -11.085546,-2.80158 -1.399485,-0.6991 -2.817145,-1.35253 -3.150357,-1.45206 -0.33321,-0.0995 -2.296123,-1.00095 -4.36203,-2.00315 -2.065905,-1.0022 -4.792174,-2.18079 -6.058375,-2.61909 -1.266201,-0.43829 -3.229114,-1.1976 -4.36203,-1.68734 -1.132916,-0.48973 -2.877728,-1.1985 -3.87736,-1.57504 -3.957415,-1.49066 -7.404908,-3.60456 -10.701886,-6.56209 -0.978102,-0.8774 -3.250553,-2.55752 -5.04989,-3.73362 -7.359359,-4.81025 -12.444274,-9.53025 -14.519221,-13.47726 -0.588295,-1.11906 -1.360954,-2.41634 -1.717019,-2.88284 -4.178391,-5.47426 -7.972341,-13.33542 -8.479285,-17.56928 -0.397212,-3.3174 -0.683558,-5.60712 -0.984936,-7.87589 -0.150495,-1.13292 -0.273581,-3.91371 -0.273526,-6.17954 l 10e-5,-4.11969 0.97419,-3.029163 c 2.404911,-7.477927 2.763617,-7.989223 5.612895,-8.000544 1.437782,-0.0057 1.895032,-0.213814 5.810884,-2.644612 1.130081,-0.701505 3.801824,-2.135061 5.937209,-3.185677 4.057996,-1.996549 4.562794,-2.340782 8.446795,-5.760054 1.310794,-1.153955 2.89203,-2.486632 3.513857,-2.961501 3.138748,-2.396961 10.190637,-10.063022 14.029961,-15.251878 1.141616,-1.542896 3.245729,-3.614104 5.154592,-5.073983 0.733064,-0.560639 2.480363,-2.129251 3.882888,-3.485802 1.402526,-1.356553 3.147338,-3.022881 3.87736,-3.702953 0.730024,-0.680073 1.561236,-1.555907 1.847138,-1.946301 0.564592,-0.770938 6.003773,-3.904346 7.862034,-4.529169 4.001678,-1.345523 17.147408,-1.007462 20.784038,0.53449 1.86533,0.790913 2.34018,0.909447 2.10248,0.524833 -0.95588,-1.546635 0.13488,-7.211898 1.59981,-8.309223 1.85837,-1.39204 2.21038,-1.472963 7.13265,-1.639678 2.54095,-0.08606 4.77136,-0.250075 4.95647,-0.364475 0.35819,-0.221375 2.84426,-0.727499 5.14546,-1.047534 3.41011,-0.474254 6.49107,0.639232 8.78617,3.175396 0.74697,0.825435 1.23128,1.543076 1.07624,1.594757 -0.15505,0.05168 0.53571,0.926099 1.535,1.94315 5.16879,5.260608 6.31701,7.377472 6.32398,11.658916 0.007,4.411926 -0.55305,6.517386 -2.10801,7.922192 -0.54478,0.492181 -0.86626,0.936292 -0.7144,0.986913 0.87861,0.292868 2.2746,1.649289 2.96791,2.883787 0.43838,0.78056 1.51858,2.183634 2.40045,3.117943 1.51561,1.605738 2.52697,3.001173 4.82825,6.661816 1.49875,2.384061 2.63284,5.981529 2.80123,8.88583 0.55622,9.593044 0.53679,9.975469 -0.78581,15.468839 -0.12836,0.533137 -0.3111,1.841746 -0.40608,2.908015 -0.11301,1.26851 -0.36583,2.31564 -0.73138,3.02917 -0.30727,0.59977 -0.63458,1.5267 -0.72737,2.05984 -0.0928,0.53314 -0.32439,1.27676 -0.51469,1.6525 -1.90408,3.75957 -2.08553,16.71572 -0.29989,21.41233 0.93616,2.46227 1.95634,11.01387 2.00412,16.79928 0.0443,5.36827 -0.10838,6.57593 -1.50146,11.87441 -0.26283,0.99964 -0.72034,2.90802 -1.0167,4.24087 -1.24443,5.59675 -6.89262,10.98257 -12.9657,12.36342 -1.73934,0.39548 -6.25346,2.11266 -8.58909,3.26732 -2.55759,1.26438 -5.04176,1.92554 -7.87589,2.09616 -4.32643,0.26046 -17.14404,0.32317 -17.93279,0.0877 z m 17.08462,-7.65824 c 2.24555,-0.12631 4.22093,-0.64765 5.41269,-1.42852 0.30274,-0.19836 1.17585,-0.57583 1.94023,-0.83882 0.76439,-0.26299 2.39432,-0.90829 3.62206,-1.43401 1.22775,-0.52573 2.93563,-1.10267 3.79529,-1.28211 4.68092,-0.97704 7.86786,-4.56704 8.76073,-9.8687 0.14866,-0.88272 0.46286,-2.25926 0.69822,-3.05896 0.96823,-3.28981 1.06615,-4.09539 1.03101,-8.48173 -0.0436,-5.44658 -0.92055,-12.18906 -1.69612,-13.04138 -0.8399,-0.923 -1.05975,-1.59886 -1.42118,-4.369 -0.77088,-5.90829 -3.29669,-9.5429 -11.23786,-16.17111 -0.86634,-0.72311 -2.83735,-2.52082 -4.38001,-3.9949 -7.31954,-6.99415 -9.43071,-8.399599 -10.32814,-6.87563 -0.45242,0.76828 -2.32962,2.16457 -2.91009,2.16457 -0.92557,0 -3.76376,2.06603 -4.31467,3.14082 -0.3327,0.64907 -1.29239,1.73342 -2.34098,2.64506 -2.78218,2.41881 -4.00803,3.92779 -5.08563,6.26026 l -0.98303,2.12777 -0.2043,4.60571 c -0.22483,5.06844 -0.36937,6.45004 -0.95092,9.0889 -0.13218,0.59978 -0.29844,1.85386 -0.36947,2.78685 -0.54937,7.21579 -0.86573,8.31382 -2.84227,9.8651 -0.55897,0.4387 -1.56574,1.36367 -2.23728,2.05549 -4.10274,4.22665 -16.612874,6.12513 -22.714589,3.44707 -5.466151,-2.39911 -7.977357,-5.09916 -9.785101,-10.52096 -0.622158,-1.86598 -1.390731,-4.01644 -1.70794,-4.77881 -2.247627,-5.40187 1.304087,-13.49515 6.756761,-15.39663 0.867725,-0.30259 1.490266,-0.75031 2.18661,-1.57255 0.535428,-0.63224 1.420499,-1.41313 1.966823,-1.73531 1.289694,-0.76058 1.978259,-1.51438 3.673671,-4.02172 2.81016,-4.15595 3.238869,-4.7519 4.387712,-6.09941 3.62714,-4.25432 6.28859,-8.783213 5.531032,-9.411928 -1.696443,-1.407924 -3.75387,-5.009223 -3.75387,-6.570736 v -1.014521 l -3.089772,0.195316 c -1.699374,0.107424 -5.434363,0.219908 -8.299975,0.249966 -2.865612,0.03006 -5.646406,0.168567 -6.179543,0.307797 -0.533136,0.139233 -2.386999,0.419422 -4.119695,0.622646 -9.696645,1.137294 -9.915486,1.173353 -12.714761,2.095081 -1.537074,0.506117 -3.462179,1.201799 -4.278012,1.54596 -0.815832,0.34416 -2.147591,0.795921 -2.959463,1.003914 -2.473807,0.633759 -8.581831,4.030085 -11.969967,6.655815 -1.319438,1.02253 -2.306432,7.75769 -1.527001,10.4201 0.05853,0.19992 0.281438,2.05379 0.495352,4.11969 0.416679,4.02413 0.858513,6.5669 1.410893,8.11974 1.002226,2.81745 4.857688,9.59775 6.475656,11.38823 0.240884,0.26657 0.945288,1.4116 1.565343,2.54452 2.185645,3.99344 7.264431,8.53354 14.254986,12.743 0.645386,0.38862 2.172097,1.58471 3.392689,2.65797 3.221069,2.83225 7.650105,5.68218 8.830616,5.68218 0.129076,0 1.093441,0.39338 2.143035,0.87418 1.049591,0.4808 2.889806,1.23625 4.089365,1.67877 1.199558,0.44252 3.099035,1.14334 4.221058,1.55738 1.122025,0.41404 2.757787,1.11987 3.635025,1.56851 2.369199,1.21167 4.387618,2.07588 4.848344,2.07588 0.224369,0 0.947283,0.34236 1.606478,0.76082 3.086662,1.95938 6.22499,2.91644 11.01311,3.35854 1.13291,0.10461 3.36845,0.42511 4.96787,0.71224 1.59941,0.28712 3.7259,0.62944 4.72553,0.76071 0.99963,0.13128 1.92656,0.28829 2.05984,0.34893 0.27842,0.12666 11.46235,-0.0745 14.90361,-0.26804 z m -2.76006,-1.93457 c -0.1728,-0.45032 0.16917,-1.16439 0.76902,-1.60577 0.70749,-0.5206 3.60312,-6.70903 4.73988,-10.12992 l 0.76502,-2.30218 -0.067,-8.11823 c -0.0369,-4.46502 -0.18533,-9.91756 -0.3299,-12.11675 -0.60093,-9.14123 -0.56999,-11.68399 0.14551,-11.95855 0.88511,-0.33965 1.01764,0.35698 1.19911,6.30318 0.19497,6.38864 0.57235,16.38057 0.78048,20.66474 0.21512,4.42821 -1.80866,11.64731 -4.3923,15.66792 -0.17904,0.27862 -0.44192,0.93292 -0.58417,1.45401 -0.17752,0.65024 -0.52578,1.12827 -1.11027,1.52392 -0.46839,0.31707 -0.85162,0.67149 -0.85162,0.78759 0,0.3714 -0.91188,0.2257 -1.06371,-0.16996 z m -19.77514,-9.35821 c -3.58378,-1.84355 -2.51601,-6.97714 1.45205,-6.98113 1.14218,-0.001 3.73007,-1.05352 4.30782,-1.75178 0.64244,-0.77644 2.78122,-4.48579 3.39178,-5.88249 1.08764,-2.48801 1.06021,-6.89607 -0.089,-14.29776 -1.29659,-8.35107 -0.12329,-12.72078 3.41562,-12.72078 2.92602,0 3.75406,1.32517 3.75528,6.00988 5.5e-4,1.90695 0.10975,4.19702 0.24279,5.08904 0.13303,0.89202 0.40566,2.72538 0.60584,4.07412 1.13031,7.61584 0.26701,13.60095 -2.62895,18.22593 -0.72365,1.15572 -1.53629,2.5375 -1.80586,3.07064 -1.9232,3.80352 -9.37649,6.84694 -12.6474,5.16433 z M 56.381329,136.29028 c -2.502902,-1.17561 -2.786854,-1.97178 -2.786854,-7.81402 v -4.52609 l 1.372171,-2.56999 c 0.754693,-1.4135 1.799449,-3.20398 2.321678,-3.97884 0.522232,-0.77486 1.713591,-2.90135 2.647465,-4.72553 2.269308,-4.43274 2.490042,-4.64543 8.401829,-8.09579 4.608134,-2.68948 12.411244,-4.815923 14.036355,-3.82508 3.436382,2.09517 1.893177,6.3648 -2.707681,7.49141 -2.668848,0.65352 -6.985079,2.50166 -9.108365,3.90007 -0.599779,0.39501 -1.424624,0.89418 -1.83299,1.10926 -0.575486,0.30309 -1.093287,1.08073 -2.302183,3.45744 -0.857835,1.68652 -2.013455,3.73484 -2.568046,4.55183 -2.616656,3.85469 -3.719425,8.19046 -2.368366,9.31174 3.518348,2.91997 -0.789011,7.74081 -5.105013,5.71359 z m 39.642076,5.34293 c 2.464949,-0.51032 2.900023,-0.70429 4.274625,-1.90577 0.65807,-0.57518 1.48976,-1.26389 1.8482,-1.53046 0.76665,-0.57014 1.01162,-1.71283 1.24684,-5.81604 0.0841,-1.46613 0.3691,-3.64127 0.63345,-4.83366 0.32216,-1.45314 0.55771,-3.85026 0.7144,-7.27005 0.26847,-5.85933 0.33319,-6.21787 1.52625,-8.45431 0.48584,-0.91074 0.88335,-1.8721 0.88335,-2.13636 0,-0.83349 0.48936,-1.47615 2.94463,-3.86705 3.86744,-3.76604 4.51058,-5.62567 2.49414,-7.211807 -0.64712,-0.509021 -0.90869,-0.518233 -8.25609,-0.290751 -0.38859,0.01203 -0.83244,0.56659 -1.80686,2.257548 -1.86725,3.24033 -4.838711,7.60407 -6.240577,9.16459 -0.666671,0.74212 -2.147105,2.75956 -3.289857,4.48319 -3.212374,4.84531 -3.281527,4.93543 -4.320215,5.63042 -1.636069,1.09471 -1.940911,1.3439 -3.698831,3.02355 -0.932989,0.89145 -2.078022,1.74703 -2.544518,1.90129 -0.466495,0.15426 -1.237586,0.61952 -1.713536,1.03391 -0.47595,0.4144 -1.157517,0.99809 -1.514595,1.2971 -0.931593,0.7801 -0.896693,2.51523 0.104476,5.19424 0.414538,1.10926 1.073712,2.94376 1.464832,4.07668 1.865398,5.40331 6.618325,7.04074 15.249886,5.25374 z m 58.155965,-30.396 c 0.13239,-1.5174 1.8195,-8.21115 2.57204,-10.20475 0.31999,-0.84771 0.73811,-2.647046 0.92916,-3.998523 0.19105,-1.351475 0.57999,-3.329634 0.8643,-4.395908 0.4354,-1.632954 0.48924,-2.282622 0.34137,-4.119694 -0.0966,-1.199559 -0.215,-3.319056 -0.26322,-4.709995 -0.13322,-3.842504 -0.75602,-5.443494 -4.07055,-10.463855 -0.38585,-0.584428 -1.43246,-1.836031 -2.3258,-2.781337 -0.89333,-0.945309 -1.87538,-2.165572 -2.18232,-2.711698 -0.48412,-0.861376 -0.78606,-1.076986 -2.27857,-1.627079 -0.94627,-0.34877 -2.10217,-0.882494 -2.56867,-1.186055 -6.16906,-4.014374 -9.96259,-6.206022 -10.74203,-6.206022 -0.18576,0 -0.72758,-0.264548 -1.20404,-0.587883 -1.98383,-1.346263 -9.928,-4.558498 -14.10494,-5.703351 -1.06627,-0.292254 -2.64751,-0.840202 -3.51386,-1.217661 -4.76811,-2.077422 -15.1451,-1.847269 -19.198567,0.425811 -3.92674,2.202016 -3.88525,2.236385 2.699856,2.236385 5.764611,0 6.805311,0.150219 6.805311,0.982311 0,0.738603 -12.374971,0.747603 -12.830376,0.0093 -0.263217,-0.426712 -1.292471,0.362092 -3.835871,2.939747 l -1.762642,1.786384 2.368481,-0.09102 c 3.086183,-0.118605 6.83121,-0.77165 8.726901,-1.521765 1.327674,-0.525354 1.784237,0.708337 0.506632,1.369008 -0.422674,0.218575 -1.104241,0.445255 -1.514594,0.503737 -0.410352,0.05848 -1.236824,0.25264 -1.836603,0.431465 -1.386346,0.413338 -4.495863,0.811335 -7.751579,0.992151 -2.825923,0.156944 -2.769497,0.130343 -5.750404,2.710909 -1.585519,1.37258 -3.100633,3.353367 -2.736942,3.57814 0.118066,0.07297 0.743114,0.113966 1.388996,0.0911 0.645884,-0.02286 1.38876,0.07156 1.650838,0.209832 0.262076,0.138269 2.712043,0.330689 5.444371,0.427601 5.152238,0.182743 5.816041,0.306925 5.816041,1.088052 0,0.859754 -1.093616,0.88931 -8.724061,0.235778 -6.316729,-0.541015 -7.09801,-0.554125 -7.412258,-0.124365 -0.846243,1.157307 -5.220161,5.978121 -8.086008,8.912179 -1.871445,1.915996 -3.091918,3.337956 -2.864972,3.337956 0.724965,0 4.163856,-0.504256 6.004152,-0.880408 1.175871,-0.240346 3.614106,-0.402012 6.906548,-0.457935 2.79897,-0.04754 6.94589,-0.163635 9.215378,-0.257985 2.802635,-0.116516 4.763463,-0.07839 6.112411,0.118854 1.09234,0.159721 3.215838,0.386261 4.718888,0.50342 3.882853,0.302661 7.762503,1.054539 9.920933,1.922685 1.02121,0.410741 2.54792,0.923142 3.39269,1.138666 0.84477,0.215526 1.91762,0.584214 2.38412,0.819307 0.46649,0.235096 2.13877,0.93651 3.71616,1.558703 1.5774,0.622193 4.63082,2.064976 6.78538,3.206185 2.15457,1.141211 5.06242,2.679035 6.46191,3.417391 4.05241,2.138012 7.51403,5.071663 18.86672,15.989112 2.45043,2.35648 2.92271,2.72436 2.95929,2.30509 z m -9.58809,-58.211463 c 0.66642,0.0042 1.4843,0.163531 1.81751,0.354009 1.53363,0.876701 2.01338,0.442708 1.96524,-1.777767 -0.0423,-1.952575 -0.62759,-2.898354 -3.84846,-6.219288 -1.16342,-1.199558 -2.49699,-2.756872 -2.96348,-3.460698 -0.93949,-1.417453 -1.60074,-1.726734 -2.78006,-1.300287 -0.42252,0.152784 -1.06577,0.277789 -1.42946,0.277789 -0.36369,0 -0.99864,0.17447 -1.411,0.387711 -0.55714,0.288105 -1.81476,0.428184 -4.89525,0.545254 l -4.1455,0.157542 -0.13488,1.938679 c -0.0742,1.066275 -0.21546,2.112048 -0.31395,2.323941 -0.22269,0.479127 0.15389,0.793406 1.41817,1.183538 1.12987,0.348656 5.47699,2.314703 10.50892,4.752807 l 3.54416,1.717238 0.72818,-0.444074 c 0.45672,-0.278527 1.17989,-0.441211 1.93986,-0.436394 z m 29.7444,108.315543 c -1.80023,-1.09762 -2.20616,-3.11869 -1.14406,-5.69619 1.02463,-2.48656 1.04481,-2.08431 -0.50474,-10.0569 -0.2202,-1.13292 -0.66061,-2.87773 -0.97871,-3.87736 -0.31809,-0.99963 -0.95249,-3.0716 -1.40978,-4.60437 -0.45728,-1.53276 -1.20957,-3.84802 -1.67175,-5.14501 -2.7231,-7.64169 -1.88896,-11.7834 2.31882,-11.5134 2.16721,0.13906 3.11264,1.20655 3.5931,4.05699 0.27027,1.60343 1.09134,4.55801 1.68362,6.05838 0.49653,1.25783 1.2614,3.79791 1.92537,6.394 0.25406,0.9934 0.67316,2.22393 0.93133,2.73453 0.25816,0.51061 0.60684,1.90983 0.77485,3.10939 0.168,1.19955 0.44318,2.57239 0.61152,3.05073 2.94979,8.38217 -1.08084,18.56745 -6.12957,15.48921 z m 16.17469,-13.21749 c -0.23104,-0.6077 -0.90381,-4.59993 -1.44827,-8.59398 -0.58382,-4.28296 -1.39018,-7.41521 -2.13508,-8.29362 -0.5182,-0.61107 -1.54776,-3.12023 -4.60153,-11.21434 -0.89476,-2.37163 -2.77343,-5.99353 -4.40596,-8.49431 -0.67037,-1.02691 -1.2219,-1.98944 -1.22561,-2.13894 -0.004,-0.14951 -0.32368,-0.69056 -0.71104,-1.20235 -0.73084,-0.96558 -0.74234,-1.614 -0.0286,-1.614 0.55138,0 1.53673,1.08152 2.20787,2.42335 0.3,0.59978 0.9763,1.72629 1.50289,2.50335 0.5266,0.77707 1.18241,1.9221 1.45736,2.54452 0.27495,0.62242 0.76723,1.53614 1.09393,2.03049 0.58714,0.88847 1.40506,2.91889 3.23333,8.02661 1.2916,3.60839 3.30675,7.85337 3.09675,6.52343 -0.0834,-0.52824 0.0759,-0.78759 0.4837,-0.78759 0.86348,0 1.3077,1.02657 1.73029,3.99853 0.1137,0.79971 0.33878,1.99927 0.50016,2.66569 0.53591,2.21305 0.96297,11.38574 0.56043,12.03709 -0.27103,0.43851 -1.08413,0.1817 -1.31059,-0.41393 z M 18.271932,90.57949 c -2.495382,-1.521452 -2.359987,-4.601202 0.287814,-6.546722 1.904606,-1.399443 8.381318,-6.935165 10.195392,-8.714122 2.112634,-2.071737 3.411794,-2.722603 8.966394,-4.492064 2.399117,-0.764259 4.754817,-1.588585 5.234887,-1.831835 4.5602,-2.310637 11.119886,-2.18399 12.757665,0.246309 1.864243,2.766349 -0.211219,5.582774 -4.11525,5.584444 -2.064945,9.09e-4 -5.839025,0.979134 -7.937509,2.057422 -0.334633,0.171948 -1.671395,0.594796 -2.970584,0.939662 -3.856229,1.023623 -5.547957,1.859281 -7.28382,3.59796 -0.836888,0.838246 -2.371639,2.232915 -3.410557,3.099263 -1.038919,0.866346 -2.833715,2.373041 -3.988435,3.348205 -3.586089,3.028467 -5.891047,3.836359 -7.735997,2.711478 z m 3.517114,-17.994683 c -0.241756,-0.657402 1.266652,-2.021 2.759888,-2.494934 0.310649,-0.0986 0.947927,-0.419749 1.416171,-0.71367 0.468244,-0.293923 1.669233,-1.007297 2.668864,-1.585276 0.999632,-0.57798 2.253716,-1.397251 2.786853,-1.820605 0.533138,-0.423353 1.654581,-1.115516 2.4921,-1.538141 0.837517,-0.422624 2.228654,-1.200463 3.091415,-1.72853 4.169648,-2.552106 8.79639,-4.380309 15.378464,-6.076619 4.5923,-1.183512 6.58127,-1.517683 6.811919,-1.144486 0.427459,0.691643 -0.376363,1.235387 -2.464259,1.666946 -7.749954,1.601881 -14.171697,3.86544 -18.524258,6.529503 -0.857366,0.524765 -2.244088,1.296541 -3.081605,1.715056 -0.837519,0.418517 -2.068015,1.162287 -2.734435,1.652824 -1.537959,1.132054 -4.366002,2.870269 -6.514543,4.004064 -0.917312,0.484071 -1.970129,1.095377 -2.339592,1.358458 -0.762172,0.542715 -1.581648,0.624997 -1.746982,0.17541 z"
           id="path1" />
        <g
           id="g21">
          <g
             id="SPLINE_52_">
            <path
               d="m 93.351,12.852 1.014,5.605 0.24,1.251 0.135,0.625 0.136,0.623 -0.064,0.013 -0.515,-0.732 -0.514,-0.724 c -0.406,-0.57 -0.762,-1.053 -1.064,-1.451 l -3.424,-4.476 -3.131,0.567 1.76,9.733 1.847,-0.336 -1.009,-5.583 -0.245,-1.274 -0.137,-0.63 -0.145,-0.637 0.071,-0.013 0.433,0.643 0.439,0.642 c 0.415,0.612 0.716,1.039 0.902,1.28 l 3.747,4.837 3.131,-0.566 -1.761,-9.734 z"
               id="path1-5" />
          </g>
          <path
             d="m 104.398,18.024 c -0.105,-1.374 -0.381,-2.257 -0.827,-2.652 -0.446,-0.395 -1.337,-0.542 -2.672,-0.44 -1.371,0.104 -2.244,0.388 -2.622,0.854 -0.378,0.464 -0.509,1.421 -0.401,2.871 0.115,1.508 0.397,2.468 0.848,2.879 0.45,0.413 1.38,0.563 2.792,0.457 1.302,-0.098 2.135,-0.402 2.504,-0.909 0.368,-0.509 0.494,-1.527 0.378,-3.06 z m -1.794,2.157 c -0.161,0.289 -0.584,0.459 -1.272,0.511 -0.713,0.055 -1.168,-0.043 -1.366,-0.29 -0.197,-0.247 -0.337,-0.889 -0.416,-1.929 -0.069,-0.911 -0.019,-1.497 0.148,-1.759 0.169,-0.263 0.599,-0.42 1.288,-0.472 0.68,-0.052 1.123,0.038 1.329,0.269 0.207,0.232 0.343,0.788 0.41,1.67 0.08,1.044 0.039,1.712 -0.121,2 z"
             id="path2" />
          <g
             id="POLYLINE_48_">
            <polyline
               points="105.806,14.766 105.909,21.691 107.568,21.667 107.465,14.74 105.806,14.766    "
               id="polyline2" />
          </g>
          <g
             id="POLYLINE_23_">
            <polyline
               points="105.762,11.802 105.783,13.186 107.442,13.161 107.421,11.777 105.762,11.802    "
               id="polyline3" />
          </g>
          <g
             id="SPLINE_51_">
            <path
               d="m 114.534,15.257 c -0.387,-0.288 -1.157,-0.458 -2.309,-0.507 -1.222,-0.055 -2.053,0.049 -2.497,0.309 -0.44,0.262 -0.68,0.787 -0.713,1.579 -0.039,0.884 0.171,1.475 0.626,1.776 0.458,0.301 1.429,0.484 2.91,0.551 0.658,0.028 0.973,0.336 0.947,0.919 -0.026,0.609 -0.566,0.889 -1.611,0.843 -1.015,-0.044 -1.472,-0.372 -1.376,-0.981 0.006,-0.059 0.022,-0.134 0.054,-0.23 l -1.722,-0.078 -0.009,0.174 c -0.036,0.806 0.156,1.366 0.577,1.679 0.42,0.315 1.223,0.497 2.406,0.55 1.231,0.055 2.09,-0.071 2.58,-0.375 0.489,-0.305 0.753,-0.88 0.791,-1.725 0.034,-0.791 -0.121,-1.322 -0.466,-1.594 -0.345,-0.271 -1.11,-0.463 -2.289,-0.572 -0.877,-0.083 -1.389,-0.164 -1.538,-0.243 -0.149,-0.081 -0.214,-0.31 -0.197,-0.692 0.024,-0.559 0.468,-0.82 1.333,-0.782 0.604,0.027 0.982,0.084 1.134,0.174 0.154,0.089 0.238,0.3 0.259,0.635 l 0.017,0.132 1.622,0.072 c 0.033,-0.789 -0.144,-1.326 -0.529,-1.614 z"
               id="path3" />
          </g>
          <path
             d="m 122.454,16.416 c -0.359,-0.501 -1.152,-0.831 -2.381,-0.988 -1.277,-0.164 -2.167,-0.043 -2.667,0.359 -0.5,0.404 -0.835,1.273 -1.006,2.61 -0.192,1.504 -0.109,2.517 0.252,3.035 0.364,0.52 1.227,0.867 2.593,1.041 2.012,0.258 3.104,-0.285 3.276,-1.626 l 0.034,-0.267 -1.653,-0.211 c -0.054,0.438 -0.181,0.711 -0.379,0.818 -0.201,0.109 -0.602,0.125 -1.206,0.046 -0.622,-0.079 -1.024,-0.246 -1.206,-0.497 -0.179,-0.252 -0.226,-0.715 -0.139,-1.391 0.008,-0.048 0.024,-0.148 0.054,-0.3 l 4.651,0.596 0.063,-0.503 c 0.168,-1.314 0.073,-2.222 -0.286,-2.722 z m -1.256,1.735 -0.028,0.274 -2.999,-0.385 c 0.085,-0.661 0.232,-1.079 0.44,-1.25 0.212,-0.173 0.624,-0.219 1.237,-0.142 0.633,0.082 1.033,0.214 1.201,0.404 0.169,0.186 0.218,0.553 0.149,1.099 z"
             id="path4" />
          <path
             d="m 130.537,18.095 c -0.257,-0.552 -0.874,-0.935 -1.845,-1.146 -1.133,-0.246 -1.916,-0.042 -2.351,0.611 l -0.031,-0.022 0.837,-3.866 -1.621,-0.352 -2.096,9.667 1.621,0.35 0.164,-1.084 0.033,0.007 c 0.165,0.836 0.774,1.369 1.827,1.598 1.04,0.224 1.794,0.129 2.267,-0.284 0.474,-0.414 0.861,-1.321 1.164,-2.723 0.279,-1.286 0.288,-2.205 0.031,-2.756 z m -1.689,2.469 c -0.207,0.953 -0.431,1.544 -0.673,1.771 -0.241,0.227 -0.693,0.269 -1.355,0.125 -0.63,-0.138 -1.006,-0.37 -1.124,-0.7 -0.118,-0.33 -0.063,-1.005 0.159,-2.03 0.284,-1.308 0.951,-1.847 2.004,-1.618 0.607,0.13 0.97,0.35 1.093,0.658 0.126,0.308 0.09,0.907 -0.104,1.794 z"
             id="path5" />
          <g
             id="SPLINE_50_">
            <path
               d="m 130.927,24.704 1.59,0.48 1.177,-3.907 c 0.316,-1.05 0.867,-1.457 1.653,-1.219 0.55,0.165 0.721,0.602 0.506,1.31 -0.019,0.056 -0.063,0.17 -0.135,0.345 l 1.498,0.451 0.141,-0.464 c 0.443,-1.471 0.081,-2.383 -1.083,-2.733 -0.814,-0.246 -1.513,-0.08 -2.104,0.501 l -0.033,-0.018 0.379,-0.901 -1.588,-0.479 z"
               id="path6" />
          </g>
          <g
             id="POLYLINE_22_">
            <polyline
               points="139.088,20.024 136.735,26.54 138.295,27.103 140.649,20.589 139.088,20.024    "
               id="polyline6" />
          </g>
          <g
             id="POLYLINE_21_">
            <polyline
               points="140.097,17.236 139.625,18.538 141.187,19.102 141.658,17.8 140.097,17.236    "
               id="polyline7" />
          </g>
          <path
             d="m 147.739,20.29 -1.57,3.625 -0.03,-0.005 c 0.025,-0.768 -0.478,-1.376 -1.517,-1.825 -0.895,-0.388 -1.614,-0.438 -2.152,-0.149 -0.542,0.291 -1.058,1.002 -1.55,2.137 -0.607,1.406 -0.85,2.409 -0.723,3.007 0.129,0.6 0.695,1.118 1.702,1.554 0.995,0.432 1.804,0.342 2.421,-0.27 l 0.023,0.018 -0.495,1.002 1.483,0.642 3.931,-9.076 z m -2.499,5.749 c -0.409,0.943 -0.757,1.509 -1.039,1.698 -0.283,0.188 -0.732,0.148 -1.342,-0.116 -0.585,-0.254 -0.907,-0.549 -0.958,-0.889 -0.055,-0.338 0.118,-0.97 0.52,-1.891 0.346,-0.798 0.655,-1.28 0.929,-1.449 0.272,-0.17 0.691,-0.13 1.261,0.116 0.59,0.255 0.929,0.548 1.012,0.873 0.084,0.325 -0.043,0.877 -0.383,1.658 z"
             id="path7" />
          <path
             d="m 153.905,26.719 -0.477,1.045 -0.03,-0.018 c 0.085,-0.881 -0.355,-1.584 -1.324,-2.109 -0.887,-0.482 -1.618,-0.594 -2.194,-0.339 -0.575,0.254 -1.173,0.954 -1.794,2.102 -0.659,1.22 -0.941,2.144 -0.846,2.772 0.096,0.629 0.605,1.193 1.527,1.693 0.931,0.504 1.701,0.501 2.311,-0.008 l 0.028,0.023 -0.743,1.371 c -0.404,0.747 -1.06,0.875 -1.964,0.386 -0.515,-0.278 -0.815,-0.515 -0.902,-0.708 -0.088,-0.192 -0.023,-0.487 0.189,-0.881 l -1.414,-0.767 c -0.449,0.829 -0.573,1.479 -0.373,1.949 0.2,0.47 0.825,0.99 1.87,1.556 1.079,0.584 1.92,0.801 2.521,0.649 0.601,-0.152 1.171,-0.726 1.709,-1.72 l 3.363,-6.205 z m -1.646,2.976 c -0.453,0.836 -0.83,1.331 -1.133,1.484 -0.302,0.152 -0.739,0.073 -1.314,-0.237 -0.572,-0.312 -0.875,-0.629 -0.906,-0.953 -0.03,-0.325 0.187,-0.915 0.653,-1.773 0.437,-0.806 0.796,-1.28 1.078,-1.421 0.284,-0.142 0.705,-0.06 1.267,0.244 0.586,0.316 0.898,0.638 0.943,0.965 0.043,0.323 -0.154,0.889 -0.588,1.691 z"
             id="path8" />
          <path
             d="m 161.377,32.079 c -0.103,-0.608 -0.671,-1.252 -1.704,-1.932 -1.079,-0.708 -1.928,-0.992 -2.558,-0.849 -0.623,0.143 -1.308,0.778 -2.049,1.903 -0.834,1.27 -1.201,2.215 -1.104,2.839 0.097,0.625 0.723,1.316 1.871,2.074 1.695,1.114 2.915,1.106 3.659,-0.022 l 0.149,-0.225 -1.391,-0.916 c -0.243,0.367 -0.477,0.556 -0.703,0.566 -0.227,0.01 -0.594,-0.151 -1.104,-0.486 -0.524,-0.347 -0.812,-0.671 -0.862,-0.976 -0.052,-0.306 0.11,-0.743 0.484,-1.312 0.026,-0.041 0.087,-0.123 0.179,-0.247 l 3.919,2.577 0.276,-0.424 c 0.73,-1.105 1.04,-1.962 0.938,-2.57 z m -1.892,1.006 -0.147,0.233 -2.522,-1.66 c 0.364,-0.557 0.681,-0.868 0.945,-0.931 0.263,-0.063 0.655,0.075 1.17,0.416 0.531,0.352 0.833,0.646 0.903,0.888 0.07,0.243 -0.047,0.594 -0.349,1.054 z"
             id="path9" />
          <g
             id="POLYLINE_20_">
            <polyline
               points="173.698,37.424 171.036,40.459 167.548,37.4 170.21,34.366 168.799,33.128 162.276,40.565 163.687,41.803      166.506,38.589 169.994,41.646 167.175,44.86 168.586,46.098 175.108,38.66 173.698,37.424    "
               id="polyline9" />
          </g>
          <path
             d="m 178.051,46.705 c -0.047,-0.556 -0.498,-1.289 -1.35,-2.201 -0.779,-0.838 -1.403,-1.301 -1.874,-1.394 -0.469,-0.09 -1.006,0.146 -1.614,0.714 l 1.157,1.24 c 0.473,-0.442 1,-0.354 1.575,0.264 0.4,0.427 0.598,0.77 0.598,1.028 0,0.258 -0.198,0.571 -0.593,0.94 l -0.822,0.766 -0.02,-0.021 c 0.219,-0.538 -0.065,-1.228 -0.846,-2.064 -1.168,-1.254 -2.281,-1.39 -3.335,-0.409 -1.039,0.973 -0.99,2.073 0.154,3.299 0.787,0.844 1.542,1.146 2.266,0.909 l 0.02,0.037 -0.747,0.59 1.133,1.214 3.311,-3.09 c 0.706,-0.659 1.037,-1.267 0.987,-1.822 z m -3.915,2.303 c -0.496,0.464 -1.09,0.327 -1.778,-0.41 -0.423,-0.453 -0.647,-0.797 -0.679,-1.035 -0.028,-0.235 0.121,-0.507 0.449,-0.813 0.474,-0.443 1.032,-0.321 1.67,0.364 0.735,0.788 0.848,1.419 0.338,1.894 z"
             id="path10" />
          <g
             id="SPLINE_49_">
            <path
               d="m 178.438,55.079 c -0.235,-0.021 -0.528,-0.256 -0.88,-0.703 -0.447,-0.57 -0.63,-1.005 -0.549,-1.305 0.08,-0.3 0.5,-0.749 1.26,-1.346 0.784,-0.617 1.333,-0.939 1.638,-0.964 0.307,-0.026 0.664,0.222 1.072,0.743 0.576,0.732 0.546,1.348 -0.088,1.846 l 1.017,1.294 c 0.77,-0.606 1.163,-1.185 1.175,-1.736 0.014,-0.551 -0.349,-1.296 -1.092,-2.239 -0.767,-0.976 -1.473,-1.484 -2.118,-1.525 -0.645,-0.038 -1.515,0.372 -2.61,1.23 -1.12,0.881 -1.733,1.636 -1.838,2.266 -0.105,0.628 0.246,1.456 1.052,2.483 1.1,1.397 2.088,1.88 2.963,1.449 l 0.89,-0.57 0.188,-0.147 -1.021,-1.3 c -0.471,0.372 -0.824,0.547 -1.059,0.524 z"
               id="path11" />
          </g>
          <g
             id="POLYLINE_19_">
            <polyline
               points="187.264,52.866 179.019,58.328 179.934,59.711 182.495,58.015 182.72,58.354 181.403,61.928 182.538,63.644      183.991,59.197 188.042,59.408 186.979,57.802 183.699,57.732 183.463,57.375 188.179,54.25 187.264,52.866    "
               id="polyline11" />
          </g>
          <path
             d="m 190.4,63.395 c -0.621,-1.13 -1.243,-1.779 -1.863,-1.945 -0.621,-0.166 -1.52,0.076 -2.701,0.725 -1.331,0.73 -2.097,1.396 -2.304,1.993 -0.206,0.598 0.021,1.501 0.687,2.708 0.979,1.777 2.059,2.34 3.244,1.689 l 0.236,-0.129 -0.804,-1.459 c -0.385,0.212 -0.68,0.27 -0.885,0.173 -0.204,-0.097 -0.454,-0.413 -0.748,-0.945 -0.301,-0.551 -0.404,-0.973 -0.308,-1.267 0.099,-0.293 0.447,-0.604 1.044,-0.932 0.041,-0.023 0.133,-0.069 0.272,-0.135 l 2.258,4.109 0.446,-0.246 c 1.162,-0.637 1.839,-1.249 2.03,-1.833 0.192,-0.588 -0.007,-1.422 -0.604,-2.506 z m -0.738,1.74 c -0.051,0.246 -0.319,0.502 -0.802,0.767 l -0.237,0.14 -1.456,-2.646 c 0.584,-0.322 1.008,-0.449 1.271,-0.381 0.264,0.067 0.544,0.372 0.842,0.914 0.306,0.557 0.433,0.961 0.382,1.206 z"
             id="path12" />
          <g
             id="SPLINE_48_">
            <path
               d="m 186.287,70.649 0.686,1.511 3.715,-1.684 c 0.998,-0.452 1.667,-0.305 2.009,0.444 0.236,0.523 0.018,0.938 -0.655,1.244 -0.054,0.023 -0.168,0.066 -0.351,0.125 l 0.648,1.426 0.44,-0.201 c 1.399,-0.634 1.849,-1.505 1.346,-2.615 -0.352,-0.774 -0.94,-1.193 -1.761,-1.254 l -0.01,-0.036 0.927,-0.309 -0.685,-1.51 z"
               id="path13" />
          </g>
          <g
             id="SPLINE_47_">
            <path
               d="m 199.271,84.355 c 0.979,-0.303 1.56,-0.752 1.743,-1.351 0.186,-0.599 0.058,-1.607 -0.384,-3.029 -0.464,-1.5 -0.956,-2.443 -1.478,-2.831 -0.522,-0.388 -1.333,-0.411 -2.437,-0.069 -1.079,0.333 -1.719,0.761 -1.92,1.276 -0.198,0.517 -0.108,1.536 0.267,3.058 l 0.242,1.01 c 0.141,0.568 0.163,0.959 0.065,1.175 -0.1,0.214 -0.377,0.392 -0.834,0.534 -0.617,0.191 -1.048,0.201 -1.286,0.033 -0.24,-0.168 -0.482,-0.654 -0.733,-1.457 -0.317,-1.029 -0.438,-1.683 -0.36,-1.958 0.075,-0.276 0.444,-0.517 1.103,-0.722 l 0.199,-0.069 -0.541,-1.744 -0.343,0.114 c -1.1,0.34 -1.753,0.809 -1.963,1.408 -0.209,0.597 -0.083,1.641 0.376,3.125 0.512,1.652 1.026,2.665 1.544,3.035 0.516,0.372 1.401,0.362 2.656,-0.026 1.022,-0.316 1.629,-0.73 1.823,-1.243 0.195,-0.513 0.116,-1.485 -0.242,-2.917 -0.303,-1.209 -0.429,-1.94 -0.376,-2.191 0.054,-0.248 0.38,-0.465 0.976,-0.649 0.503,-0.156 0.873,-0.127 1.111,0.084 0.239,0.211 0.489,0.742 0.75,1.591 0.222,0.72 0.295,1.198 0.22,1.434 -0.077,0.234 -0.373,0.457 -0.891,0.662 l -0.19,0.074 0.542,1.751 z"
               id="path14" />
          </g>
          <path
             d="m 200.175,90.173 c -0.222,-1.069 -0.743,-1.724 -1.557,-1.961 v -0.037 l 1.021,-0.147 -0.346,-1.652 -9.689,2.028 0.353,1.695 3.895,-0.816 0.006,0.029 c -0.641,0.475 -0.849,1.244 -0.627,2.309 0.208,0.997 0.604,1.629 1.181,1.892 0.58,0.264 1.545,0.254 2.897,-0.028 1.296,-0.272 2.149,-0.645 2.562,-1.118 0.41,-0.476 0.511,-1.206 0.304,-2.194 z m -1.547,1.015 c -0.23,0.248 -0.809,0.469 -1.735,0.663 -0.903,0.189 -1.51,0.218 -1.826,0.085 -0.314,-0.13 -0.537,-0.514 -0.669,-1.147 -0.131,-0.625 -0.074,-1.068 0.172,-1.333 0.244,-0.263 0.808,-0.486 1.688,-0.671 0.905,-0.189 1.514,-0.219 1.834,-0.087 0.317,0.13 0.542,0.505 0.671,1.125 0.138,0.663 0.095,1.118 -0.135,1.365 z"
             id="path15" />
          <path
             d="m 201.329,97.398 c -0.135,-1.135 -0.367,-1.88 -0.691,-2.229 -0.325,-0.351 -0.9,-0.475 -1.724,-0.377 l 0.204,1.684 c 0.643,-0.079 1.017,0.302 1.116,1.142 0.072,0.58 0.03,0.974 -0.123,1.183 -0.153,0.208 -0.499,0.344 -1.034,0.408 l -1.119,0.134 -0.002,-0.028 c 0.493,-0.308 0.672,-1.03 0.534,-2.167 -0.205,-1.704 -1.022,-2.468 -2.451,-2.296 -1.414,0.169 -2.021,1.087 -1.822,2.752 0.139,1.146 0.571,1.837 1.294,2.071 l -0.002,0.044 -0.953,0.035 0.198,1.648 4.497,-0.542 c 0.96,-0.116 1.584,-0.413 1.871,-0.89 0.286,-0.477 0.357,-1.334 0.207,-2.572 z m -4.728,2.123 c -0.674,0.081 -1.074,-0.379 -1.192,-1.382 -0.076,-0.614 -0.054,-1.025 0.061,-1.233 0.118,-0.208 0.398,-0.34 0.844,-0.394 0.641,-0.077 1.02,0.35 1.131,1.28 0.129,1.069 -0.151,1.646 -0.844,1.729 z"
             id="path16" />
          <g
             id="SPLINE_46_">
            <path
               d="m 196.499,106.972 c -0.176,-0.155 -0.275,-0.518 -0.297,-1.088 -0.026,-0.724 0.083,-1.184 0.323,-1.377 0.241,-0.195 0.848,-0.311 1.811,-0.345 0.999,-0.037 1.631,0.025 1.892,0.187 0.263,0.159 0.404,0.569 0.429,1.23 0.034,0.933 -0.354,1.413 -1.158,1.441 l 0.059,1.644 c 0.98,-0.035 1.638,-0.271 1.972,-0.709 0.335,-0.438 0.48,-1.255 0.438,-2.452 -0.044,-1.24 -0.317,-2.067 -0.818,-2.479 -0.497,-0.413 -1.44,-0.592 -2.832,-0.544 -1.424,0.052 -2.363,0.302 -2.818,0.748 -0.454,0.447 -0.658,1.321 -0.612,2.625 0.063,1.776 0.578,2.749 1.542,2.917 l 1.054,0.063 0.237,-0.008 -0.06,-1.651 c -0.596,0.02 -0.985,-0.048 -1.162,-0.202 z"
               id="path17" />
          </g>
          <path
             d="m 201.355,110.648 c -0.443,-0.466 -1.335,-0.729 -2.684,-0.791 -1.514,-0.07 -2.516,0.095 -3.005,0.498 -0.486,0.403 -0.762,1.293 -0.827,2.668 -0.094,2.027 0.537,3.071 1.887,3.133 l 0.269,0.013 0.077,-1.664 c -0.44,-0.019 -0.723,-0.124 -0.846,-0.313 -0.123,-0.19 -0.173,-0.588 -0.143,-1.196 0.027,-0.628 0.161,-1.041 0.397,-1.241 0.236,-0.201 0.694,-0.284 1.377,-0.252 0.047,0.001 0.147,0.012 0.303,0.027 l -0.219,4.683 0.508,0.023 c 1.323,0.063 2.219,-0.107 2.689,-0.506 0.468,-0.399 0.734,-1.216 0.792,-2.451 0.06,-1.288 -0.131,-2.165 -0.575,-2.631 z m -0.659,2.503 c -0.03,0.638 -0.132,1.046 -0.304,1.229 -0.175,0.183 -0.537,0.262 -1.084,0.237 l -0.277,-0.007 0.139,-3.017 c 0.667,0.031 1.093,0.144 1.282,0.34 0.192,0.195 0.272,0.602 0.244,1.218 z"
             id="path18" />
        </g>
        <path
           d="M 108,5.4 C 51.335,5.4 5.4,51.335 5.4,108 5.4,164.665 51.335,210.6 108,210.6 164.665,210.6 210.6,164.665 210.6,108 210.6,51.335 164.665,5.4 108,5.4 Z m 0.069,200.117 -0.005,-6.781 c -0.938,0.008 -2.786,-0.029 -3.722,-0.073 -50.072,-2.021 -89.025,-44.25 -87.005,-94.322 l -6.774,-0.273 c 1.835,-51.996 45.342,-93.811 97.369,-93.585 53.858,-0.038 97.549,43.591 97.586,97.448 0.037,53.858 -43.592,97.549 -97.449,97.586 z"
           id="path53" />
        <path
           d="m 45.556716,154.71756 -8.894808,3.44901 1.1505,1.39082 1.692914,-0.67872 2.500144,3.02161 -0.966263,1.55696 1.124586,1.35922 5.019103,-8.13301 z m -0.194531,1.85159 -2.614094,4.20619 -1.98968,-2.40501 z m 1.86437,4.2566 -4.512543,4.45006 1.067079,1.08199 2.686156,-2.64888 c 0.01289,-0.0127 0.02581,-0.0252 0.03869,-0.038 l 0.05822,-0.0572 c 0.0065,-0.0191 0.01622,-0.0352 0.02911,-0.0479 0.01933,-0.019 0.0354,-0.0348 0.04828,-0.0476 0.25768,-0.2541 0.527262,-0.39916 0.809006,-0.43556 0.294539,-0.0363 0.578454,0.084 0.851605,0.36102 0.285855,0.28988 0.38341,0.53039 0.292505,0.72168 -0.07811,0.19138 -0.233116,0.40141 -0.465027,0.63009 l -0.20305,0.20021 0.981527,0.99502 0.30919,-0.30493 c 0.450939,-0.44467 0.729163,-0.88412 0.834565,-1.31841 0.111755,-0.42785 -0.0803,-0.89296 -0.575782,-1.39544 -0.247741,-0.25123 -0.527811,-0.4258 -0.8406,-0.52395 -0.306436,-0.0917 -0.629647,-0.0844 -0.969458,0.022 l -0.03798,-0.0387 0.618025,-0.57152 -1.019511,-1.03371 z m 3.716671,4.37516 c -0.07891,0.002 -0.155766,0.0108 -0.230028,0.027 -0.588139,0.12237 -1.248474,0.60221 -1.981515,1.43946 -0.816477,0.93254 -1.262494,1.70293 -1.337576,2.31058 -0.06912,0.60085 0.400091,1.34229 1.407507,2.22432 0.530936,0.46486 1.070341,0.81676 1.618368,1.05608 0.560792,0.23847 1.124258,0.0343 1.690428,-0.61235 0.0298,-0.0341 0.05674,-0.0647 0.08058,-0.0919 0.02979,-0.034 0.05325,-0.0676 0.07029,-0.10081 l -1.123166,-0.98331 -0.08058,0.0919 c -0.256267,0.2927 -0.515877,0.39011 -0.778833,0.29215 -0.256148,-0.092 -0.503318,-0.24224 -0.741559,-0.45082 -0.571777,-0.50062 -0.816615,-0.90761 -0.734815,-1.22079 0.09457,-0.31402 0.36231,-0.72276 0.803327,-1.22647 l 3.236734,2.83383 0.31416,-0.3383 c 0.780716,-0.8917 1.161373,-1.62868 1.14198,-2.21083 -0.01259,-0.57619 -0.46469,-1.2544 -1.35639,-2.03512 -0.780237,-0.68313 -1.446523,-1.01812 -1.998909,-1.0046 z m 0.357113,1.33474 c 0.244259,0.009 0.563656,0.1868 0.958454,0.53247 0.462838,0.40525 0.693042,0.73308 0.690442,0.9833 0.0042,0.25618 -0.193523,0.61209 -0.592821,1.06815 l -2.123863,-1.8594 0.03585,-0.0408 c 0.01192,-0.0136 0.02742,-0.0243 0.04615,-0.0319 l 0.02662,-0.0305 0.03585,-0.0408 c 0.371194,-0.39652 0.679051,-0.58986 0.92331,-0.58039 z m 7.770577,1.59955 -2.882107,8.89978 2.092979,1.33686 5.296346,-4.81357 0.03443,0.022 -2.196989,6.79296 2.127057,1.35852 6.919683,-6.32083 -1.475309,-0.94248 -5.763858,5.36841 2.378385,-7.53061 -1.681199,-1.07382 -5.855088,5.31019 -0.04579,-0.0291 2.515409,-7.44328 z m 10.80213,9.99419 c -0.27611,-0.0109 -0.515935,0.0352 -0.71955,0.13773 -0.538905,0.26545 -1.058494,0.89501 -1.559085,1.88887 -0.55757,1.10696 -0.796907,1.964 -0.717776,2.57114 0.0832,0.59906 0.722831,1.19955 1.918683,1.80189 0.630246,0.31745 1.24056,0.52358 1.831002,0.61838 0.602592,0.0908 1.097193,-0.24764 1.483828,-1.01525 0.02035,-0.0404 0.03874,-0.0767 0.05502,-0.10898 0.02035,-0.0404 0.0344,-0.0786 0.0426,-0.11501 l -1.332961,-0.67163 -0.05502,0.10898 c -0.175003,0.34743 -0.402121,0.50658 -0.681212,0.47745 -0.27101,-0.0251 -0.547857,-0.10889 -0.83066,-0.25133 -0.678706,-0.34186 -1.017604,-0.67453 -1.016671,-0.99821 0.0131,-0.32769 0.170249,-0.79041 0.471417,-1.38834 l 3.841981,1.93501 0.219734,-0.40574 c 0.53315,-1.05849 0.717659,-1.86711 0.553418,-2.42595 -0.15616,-0.55477 -0.763637,-1.09871 -1.822127,-1.63186 -0.661557,-0.33322 -1.222436,-0.50904 -1.682619,-0.52715 z m 0.270497,1.24421 c 0.234142,-0.0139 0.556199,0.0824 0.966263,0.28896 0.549447,0.27675 0.854108,0.5366 0.914081,0.77954 0.06806,0.24701 -0.03438,0.64108 -0.30706,1.18245 v 3.6e-4 l -2.520733,-1.27013 c 0.0081,-0.0162 0.016,-0.0322 0.02414,-0.0483 0.0081,-0.0162 0.02034,-0.0305 0.03656,-0.0426 0.0041,-0.008 0.01032,-0.0201 0.01846,-0.0362 0.0081,-0.0162 0.01635,-0.0325 0.02449,-0.0486 0.26035,-0.47669 0.509789,-0.74081 0.748659,-0.79268 0.02986,-0.006 0.06169,-0.0108 0.09513,-0.0128 z m 10.112754,0.60703 c -0.55856,0.008 -0.989864,0.17309 -1.293558,0.49413 -0.598916,0.64525 -1.162968,1.67546 -1.692559,3.09048 -0.0222,0.0593 -0.04778,0.12679 -0.07632,0.20305 -0.02537,0.0678 -0.0506,0.13562 -0.07597,0.20341 -0.03701,0.0731 -0.06979,0.14774 -0.09833,0.22399 l -0.08555,0.22897 c -0.507392,1.3557 -0.575129,2.34958 -0.20305,2.9815 0.372079,0.63192 1.19762,1.18708 2.477071,1.66593 1.821734,0.68181 3.024226,0.75988 3.607336,0.23429 0.594755,-0.53088 1.185403,-1.58009 1.772075,-3.14763 l 0.214055,-0.57188 c 0.07294,-0.19489 0.140337,-0.38691 0.20163,-0.57649 0.06977,-0.18641 0.131061,-0.37629 0.183881,-0.56904 0.390999,-1.22539 0.252475,-2.10786 -0.414975,-2.64746 -0.655806,-0.54491 -1.475012,-1.00131 -2.457901,-1.36917 -0.813426,-0.30444 -1.499276,-0.45238 -2.057836,-0.44408 z m 0.41462,1.60345 c 0.374831,6.7e-4 0.903978,0.12913 1.587128,0.3848 0.804953,0.30127 1.246563,0.63078 1.325151,0.98863 0.08706,0.36103 -0.01675,0.93544 -0.311675,1.72344 l -0.385156,1.02945 c -0.126849,0.33893 -0.26375,0.67917 -0.410715,1.02023 -0.320342,0.77848 -0.678196,1.20462 -1.073114,1.279 -0.391748,0.0659 -0.960408,-0.0404 -1.706048,-0.31949 -0.567703,-0.21247 -0.974609,-0.4421 -1.220431,-0.68866 -0.237348,-0.2434 -0.262258,-0.69229 -0.07526,-1.34681 0.03909,-0.13027 0.0766,-0.25626 0.112529,-0.37805 0.04757,-0.1271 0.09514,-0.25416 0.142703,-0.38126 0.04757,-0.12709 0.09334,-0.2502 0.137734,-0.36882 l 0.142703,-0.38125 c 0.0444,-0.11863 0.08584,-0.22881 0.123889,-0.33049 0.04123,-0.11015 0.08338,-0.21029 0.126729,-0.30032 0.0064,-0.0169 0.01284,-0.0338 0.01917,-0.0508 0.0095,-0.0255 0.01745,-0.0466 0.02378,-0.0635 0.329805,-0.88122 0.640794,-1.44099 0.932895,-1.67943 0.113904,-0.0914 0.283082,-0.13707 0.507981,-0.13667 z m 5.154352,3.07061 -2.540258,8.63141 1.432356,0.42136 1.021996,-3.37731 c 0.110728,0.45697 0.302658,0.78231 0.575782,0.97585 0.275678,0.18486 0.626179,0.33988 1.05146,0.46503 1.07622,0.3167 1.822139,0.20151 2.237812,-0.34576 0.415672,-0.54726 0.751331,-1.25487 1.006731,-2.12279 0.283495,-0.96339 0.373945,-1.75265 0.271917,-2.36738 -0.102027,-0.61473 -0.69534,-1.08151 -1.780239,-1.40077 -0.425281,-0.12512 -0.798867,-0.16925 -1.121036,-0.13205 -0.313491,0.0398 -0.646793,0.21055 -0.999632,0.51224 l 0.248843,-0.84628 z m 1.598843,1.72947 c 0.266003,-0.007 0.559582,0.0372 0.880712,0.1317 l 0.0781,0.0231 c 0.06076,0.0179 0.121353,0.0357 0.182106,0.0536 0.06943,0.0205 0.133136,0.0437 0.191336,0.0703 0.12508,0.0557 0.241984,0.12319 0.350723,0.20234 0.108736,0.0791 0.186822,0.18241 0.234289,0.30955 0.04746,0.12713 0.06457,0.27819 0.05076,0.45331 -0.01381,0.17513 -0.03763,0.35202 -0.07135,0.5307 -0.02453,0.11539 -0.05206,0.22528 -0.08271,0.32943 -0.03065,0.10415 -0.0603,0.20377 -0.08839,0.29925 l -0.1033,0.35143 c -0.163456,0.55547 -0.356135,0.97043 -0.578267,1.24457 -0.210899,0.26801 -0.641908,0.30621 -1.292848,0.11466 -0.607544,-0.17878 -0.942165,-0.45184 -1.003892,-0.81895 -0.05917,-0.37578 -0.01231,-0.82392 0.140928,-1.34467 l 0.115015,-0.39048 0.06141,-0.20838 c 0.02299,-0.0781 0.05033,-0.15482 0.082,-0.23038 0.02043,-0.0694 0.04508,-0.13759 0.07419,-0.20447 0.03167,-0.0756 0.06212,-0.14682 0.09123,-0.2137 0.201224,-0.45949 0.430633,-0.69373 0.687957,-0.70287 z m 20.114038,0.0437 c -0.27361,0.0107 -0.54479,0.0443 -0.81362,0.10081 -0.25981,0.0574 -0.49232,0.16289 -0.69754,0.31629 -0.20437,0.14439 -0.3536,0.33025 -0.44763,0.55768 -0.085,0.22829 -0.14799,0.46313 -0.18885,0.70464 -0.0183,0.0982 -0.0323,0.19698 -0.0415,0.29606 -0.008,0.0901 -0.0167,0.18006 -0.0252,0.27014 -0.0138,0.0532 -0.0234,0.10674 -0.0288,0.1608 -0.005,0.054 -0.01,0.10817 -0.0153,0.16223 l 1.49981,0.14093 0.0305,-0.32445 c 0.049,-0.52245 0.18812,-0.84562 0.41782,-0.96946 0.22971,-0.12383 0.60605,-0.16118 1.12849,-0.11218 l 0.2027,0.0192 c 0.4774,0.0448 0.79848,0.15642 0.96342,0.33546 0.16491,0.17904 0.22451,0.51181 0.17891,0.99821 -0.038,0.40535 -0.12328,0.68378 -0.25559,0.83492 -0.13146,0.14215 -0.32385,0.25587 -0.5772,0.34114 -0.0844,0.0284 -0.17819,0.0605 -0.2815,0.0962 -0.0935,0.0275 -0.19652,0.0588 -0.30884,0.0937 -0.1033,0.0357 -0.20211,0.0717 -0.29641,0.10827 -0.0845,0.0285 -0.16417,0.0573 -0.23961,0.0866 -0.3986,0.18069 -0.65169,0.40674 -0.75895,0.67837 -0.0974,0.26347 -0.17251,0.67922 -0.22577,1.2467 l 1.52678,0.14306 c 10e-4,-0.0181 0.003,-0.036 0.005,-0.054 0.002,-0.018 0.008,-0.0357 0.0188,-0.0529 0.001,-0.018 0.003,-0.036 0.005,-0.054 0.001,-0.018 0.003,-0.036 0.005,-0.054 0.033,-0.3513 0.15536,-0.58976 0.36705,-0.71529 0.21254,-0.13454 0.45423,-0.24372 0.72559,-0.3273 0.0459,-0.005 0.0879,-0.0144 0.12566,-0.0291 0.0467,-0.0138 0.0931,-0.0274 0.13987,-0.0412 0.15904,-0.0487 0.31472,-0.10675 0.46644,-0.1743 0.15258,-0.0765 0.29373,-0.17689 0.4235,-0.30103 0.18973,-0.1821 0.32284,-0.39231 0.39971,-0.63045 0.0867,-0.24629 0.15129,-0.49906 0.19382,-0.75859 0.007,-0.0721 0.0139,-0.14413 0.0206,-0.21619 0.007,-0.0721 0.0135,-0.14412 0.0202,-0.21618 0.10056,-1.07191 -0.11267,-1.75528 -0.63932,-2.05003 -0.51764,-0.29391 -1.24493,-0.48505 -2.18173,-0.57294 -0.13511,-0.0125 -0.27497,-0.0209 -0.41994,-0.0256 -0.13512,-0.0129 -0.27556,-0.0171 -0.42137,-0.0124 z m -13.762329,0.43627 c -0.559537,-0.009 -0.983436,0.10971 -1.271549,0.35747 -0.458978,0.38758 -0.811366,1.12416 -1.057494,2.20941 -0.27414,1.20877 -0.299897,2.09792 -0.07668,2.66805 0.225221,0.56131 0.990919,0.99031 2.296739,1.28646 0.688202,0.15609 1.330261,0.20872 1.926138,0.15832 0.6067,-0.0572 1.005129,-0.5047 1.195227,-1.3429 0.01,-0.0441 0.01897,-0.084 0.02698,-0.11927 0.01,-0.0441 0.01464,-0.0848 0.01384,-0.12212 l -1.455785,-0.33013 -0.02698,0.11927 c -0.08604,0.37942 -0.268082,0.58861 -0.545964,0.62761 -0.269058,0.041 -0.55806,0.0264 -0.866868,-0.0437 -0.741142,-0.16809 -1.150395,-0.40946 -1.227531,-0.72381 -0.06631,-0.32118 -0.02525,-0.8082 0.122824,-1.46111 l 4.195188,0.95171 0.115369,-0.44692 c 0.262135,-1.15583 0.246246,-1.98534 -0.04792,-2.48808 -0.285346,-0.50073 -1.00602,-0.88197 -2.161846,-1.14411 -0.433436,-0.0983 -0.817972,-0.1505 -1.153695,-0.15619 z m 4.880305,1.05536 -1.006731,6.25693 1.487378,0.23926 0.603471,-3.75146 c 0.07761,-0.48235 0.264476,-0.81865 0.560876,-1.00921 0.2964,-0.19056 0.67714,-0.24868 1.14162,-0.17395 0.51808,0.0834 0.82736,0.23874 0.92828,0.46574 0.10237,0.21807 0.11557,0.56385 0.0394,1.03726 l -0.62087,3.85867 1.48738,0.23925 0.6876,-4.27399 c 0.12647,-0.78604 0.0302,-1.35591 -0.2886,-1.7096 -0.30843,-0.36118 -0.84208,-0.60307 -1.60133,-0.72523 -0.46448,-0.0747 -0.86175,-0.0562 -1.19132,0.0557 -0.32813,0.10299 -0.64446,0.33161 -0.94887,0.68583 l 0.14199,-0.96662 z m -4.574664,0.0948 c 0.18276,0.002 0.401913,0.0318 0.657783,0.0898 0.599971,0.13607 0.958449,0.31508 1.075243,0.53638 0.125615,0.2233 0.121289,0.63035 -0.01278,1.2215 l -2.752538,-0.62441 c 0.004,-0.0176 0.0077,-0.0352 0.01171,-0.0529 0.004,-0.0176 0.01238,-0.034 0.0252,-0.0497 0.002,-0.009 0.0052,-0.0221 0.0092,-0.0398 0.004,-0.0176 0.0081,-0.0352 0.01207,-0.0529 0.137708,-0.52538 0.316011,-0.84231 0.535315,-0.95028 0.109651,-0.054 0.255998,-0.0798 0.438759,-0.0778 z m 12.561778,5.77167 -0.15442,1.64854 1.49945,0.14058 0.15478,-1.64819 z"
           style="font-size:13.5708px;line-height:0;font-family:Eurostile-Bold;-inkscape-font-specification:Eurostile-Bold;letter-spacing:0px;stroke:#000000;stroke-width:0"
           id="path21" />
      </g>
    </g>
  </g>
</svg>
