<?xml version="1.0" encoding="UTF-8" standalone="no"?>
<!-- Created with Inkscape (http://www.inkscape.org/) -->

<svg
   version="1.1"
   id="svg1"
   width="1200"
   height="1200"
   viewBox="0 0 1200 1200"
   xmlns="http://www.w3.org/2000/svg"
   xmlns:svg="http://www.w3.org/2000/svg">
  <defs
     id="defs1" />
  <g
     id="g1">
    <g
       id="Layer_3"
       transform="matrix(5.5020252,0,0,5.5020252,6.4551779,5.6365949)">
	<circle
   fill="#ec2127"
   cx="108"
   cy="108"
   r="108"
   id="circle1" />

</g>
    <g
       id="Layer_1"
       transform="matrix(5.5020252,0,0,5.5020252,6.4551779,5.6365949)">
	<g
   id="g53">
		<g
   id="SPLINE_52_">
			<path
   d="m 93.351,12.852 1.014,5.605 0.24,1.251 0.135,0.625 0.136,0.623 -0.064,0.013 -0.515,-0.732 -0.514,-0.724 c -0.406,-0.57 -0.762,-1.053 -1.064,-1.451 l -3.424,-4.476 -3.131,0.567 1.76,9.733 1.847,-0.336 -1.009,-5.583 -0.245,-1.274 -0.137,-0.63 -0.145,-0.637 0.071,-0.013 0.433,0.643 0.439,0.642 c 0.415,0.612 0.716,1.039 0.902,1.28 l 3.747,4.837 3.131,-0.566 -1.761,-9.734 z"
   id="path1-5" />

		</g>

		<path
   d="m 104.398,18.024 c -0.105,-1.374 -0.381,-2.257 -0.827,-2.652 -0.446,-0.395 -1.337,-0.542 -2.672,-0.44 -1.371,0.104 -2.244,0.388 -2.622,0.854 -0.378,0.464 -0.509,1.421 -0.401,2.871 0.115,1.508 0.397,2.468 0.848,2.879 0.45,0.413 1.38,0.563 2.792,0.457 1.302,-0.098 2.135,-0.402 2.504,-0.909 0.368,-0.509 0.494,-1.527 0.378,-3.06 z m -1.794,2.157 c -0.161,0.289 -0.584,0.459 -1.272,0.511 -0.713,0.055 -1.168,-0.043 -1.366,-0.29 -0.197,-0.247 -0.337,-0.889 -0.416,-1.929 -0.069,-0.911 -0.019,-1.497 0.148,-1.759 0.169,-0.263 0.599,-0.42 1.288,-0.472 0.68,-0.052 1.123,0.038 1.329,0.269 0.207,0.232 0.343,0.788 0.41,1.67 0.08,1.044 0.039,1.712 -0.121,2 z"
   id="path2" />

		<g
   id="POLYLINE_48_">
			<polyline
   points="105.806,14.766 105.909,21.691 107.568,21.667 107.465,14.74 105.806,14.766    "
   id="polyline2" />

		</g>

		<g
   id="POLYLINE_23_">
			<polyline
   points="105.762,11.802 105.783,13.186 107.442,13.161 107.421,11.777 105.762,11.802    "
   id="polyline3" />

		</g>

		<g
   id="SPLINE_51_">
			<path
   d="m 114.534,15.257 c -0.387,-0.288 -1.157,-0.458 -2.309,-0.507 -1.222,-0.055 -2.053,0.049 -2.497,0.309 -0.44,0.262 -0.68,0.787 -0.713,1.579 -0.039,0.884 0.171,1.475 0.626,1.776 0.458,0.301 1.429,0.484 2.91,0.551 0.658,0.028 0.973,0.336 0.947,0.919 -0.026,0.609 -0.566,0.889 -1.611,0.843 -1.015,-0.044 -1.472,-0.372 -1.376,-0.981 0.006,-0.059 0.022,-0.134 0.054,-0.23 l -1.722,-0.078 -0.009,0.174 c -0.036,0.806 0.156,1.366 0.577,1.679 0.42,0.315 1.223,0.497 2.406,0.55 1.231,0.055 2.09,-0.071 2.58,-0.375 0.489,-0.305 0.753,-0.88 0.791,-1.725 0.034,-0.791 -0.121,-1.322 -0.466,-1.594 -0.345,-0.271 -1.11,-0.463 -2.289,-0.572 -0.877,-0.083 -1.389,-0.164 -1.538,-0.243 -0.149,-0.081 -0.214,-0.31 -0.197,-0.692 0.024,-0.559 0.468,-0.82 1.333,-0.782 0.604,0.027 0.982,0.084 1.134,0.174 0.154,0.089 0.238,0.3 0.259,0.635 l 0.017,0.132 1.622,0.072 c 0.033,-0.789 -0.144,-1.326 -0.529,-1.614 z"
   id="path3" />

		</g>

		<path
   d="m 122.454,16.416 c -0.359,-0.501 -1.152,-0.831 -2.381,-0.988 -1.277,-0.164 -2.167,-0.043 -2.667,0.359 -0.5,0.404 -0.835,1.273 -1.006,2.61 -0.192,1.504 -0.109,2.517 0.252,3.035 0.364,0.52 1.227,0.867 2.593,1.041 2.012,0.258 3.104,-0.285 3.276,-1.626 l 0.034,-0.267 -1.653,-0.211 c -0.054,0.438 -0.181,0.711 -0.379,0.818 -0.201,0.109 -0.602,0.125 -1.206,0.046 -0.622,-0.079 -1.024,-0.246 -1.206,-0.497 -0.179,-0.252 -0.226,-0.715 -0.139,-1.391 0.008,-0.048 0.024,-0.148 0.054,-0.3 l 4.651,0.596 0.063,-0.503 c 0.168,-1.314 0.073,-2.222 -0.286,-2.722 z m -1.256,1.735 -0.028,0.274 -2.999,-0.385 c 0.085,-0.661 0.232,-1.079 0.44,-1.25 0.212,-0.173 0.624,-0.219 1.237,-0.142 0.633,0.082 1.033,0.214 1.201,0.404 0.169,0.186 0.218,0.553 0.149,1.099 z"
   id="path4" />

		<path
   d="m 130.537,18.095 c -0.257,-0.552 -0.874,-0.935 -1.845,-1.146 -1.133,-0.246 -1.916,-0.042 -2.351,0.611 l -0.031,-0.022 0.837,-3.866 -1.621,-0.352 -2.096,9.667 1.621,0.35 0.164,-1.084 0.033,0.007 c 0.165,0.836 0.774,1.369 1.827,1.598 1.04,0.224 1.794,0.129 2.267,-0.284 0.474,-0.414 0.861,-1.321 1.164,-2.723 0.279,-1.286 0.288,-2.205 0.031,-2.756 z m -1.689,2.469 c -0.207,0.953 -0.431,1.544 -0.673,1.771 -0.241,0.227 -0.693,0.269 -1.355,0.125 -0.63,-0.138 -1.006,-0.37 -1.124,-0.7 -0.118,-0.33 -0.063,-1.005 0.159,-2.03 0.284,-1.308 0.951,-1.847 2.004,-1.618 0.607,0.13 0.97,0.35 1.093,0.658 0.126,0.308 0.09,0.907 -0.104,1.794 z"
   id="path5" />

		<g
   id="SPLINE_50_">
			<path
   d="m 130.927,24.704 1.59,0.48 1.177,-3.907 c 0.316,-1.05 0.867,-1.457 1.653,-1.219 0.55,0.165 0.721,0.602 0.506,1.31 -0.019,0.056 -0.063,0.17 -0.135,0.345 l 1.498,0.451 0.141,-0.464 c 0.443,-1.471 0.081,-2.383 -1.083,-2.733 -0.814,-0.246 -1.513,-0.08 -2.104,0.501 l -0.033,-0.018 0.379,-0.901 -1.588,-0.479 z"
   id="path6" />

		</g>

		<g
   id="POLYLINE_22_">
			<polyline
   points="139.088,20.024 136.735,26.54 138.295,27.103 140.649,20.589 139.088,20.024    "
   id="polyline6" />

		</g>

		<g
   id="POLYLINE_21_">
			<polyline
   points="140.097,17.236 139.625,18.538 141.187,19.102 141.658,17.8 140.097,17.236    "
   id="polyline7" />

		</g>

		<path
   d="m 147.739,20.29 -1.57,3.625 -0.03,-0.005 c 0.025,-0.768 -0.478,-1.376 -1.517,-1.825 -0.895,-0.388 -1.614,-0.438 -2.152,-0.149 -0.542,0.291 -1.058,1.002 -1.55,2.137 -0.607,1.406 -0.85,2.409 -0.723,3.007 0.129,0.6 0.695,1.118 1.702,1.554 0.995,0.432 1.804,0.342 2.421,-0.27 l 0.023,0.018 -0.495,1.002 1.483,0.642 3.931,-9.076 z m -2.499,5.749 c -0.409,0.943 -0.757,1.509 -1.039,1.698 -0.283,0.188 -0.732,0.148 -1.342,-0.116 -0.585,-0.254 -0.907,-0.549 -0.958,-0.889 -0.055,-0.338 0.118,-0.97 0.52,-1.891 0.346,-0.798 0.655,-1.28 0.929,-1.449 0.272,-0.17 0.691,-0.13 1.261,0.116 0.59,0.255 0.929,0.548 1.012,0.873 0.084,0.325 -0.043,0.877 -0.383,1.658 z"
   id="path7" />

		<path
   d="m 153.905,26.719 -0.477,1.045 -0.03,-0.018 c 0.085,-0.881 -0.355,-1.584 -1.324,-2.109 -0.887,-0.482 -1.618,-0.594 -2.194,-0.339 -0.575,0.254 -1.173,0.954 -1.794,2.102 -0.659,1.22 -0.941,2.144 -0.846,2.772 0.096,0.629 0.605,1.193 1.527,1.693 0.931,0.504 1.701,0.501 2.311,-0.008 l 0.028,0.023 -0.743,1.371 c -0.404,0.747 -1.06,0.875 -1.964,0.386 -0.515,-0.278 -0.815,-0.515 -0.902,-0.708 -0.088,-0.192 -0.023,-0.487 0.189,-0.881 l -1.414,-0.767 c -0.449,0.829 -0.573,1.479 -0.373,1.949 0.2,0.47 0.825,0.99 1.87,1.556 1.079,0.584 1.92,0.801 2.521,0.649 0.601,-0.152 1.171,-0.726 1.709,-1.72 l 3.363,-6.205 z m -1.646,2.976 c -0.453,0.836 -0.83,1.331 -1.133,1.484 -0.302,0.152 -0.739,0.073 -1.314,-0.237 -0.572,-0.312 -0.875,-0.629 -0.906,-0.953 -0.03,-0.325 0.187,-0.915 0.653,-1.773 0.437,-0.806 0.796,-1.28 1.078,-1.421 0.284,-0.142 0.705,-0.06 1.267,0.244 0.586,0.316 0.898,0.638 0.943,0.965 0.043,0.323 -0.154,0.889 -0.588,1.691 z"
   id="path8" />

		<path
   d="m 161.377,32.079 c -0.103,-0.608 -0.671,-1.252 -1.704,-1.932 -1.079,-0.708 -1.928,-0.992 -2.558,-0.849 -0.623,0.143 -1.308,0.778 -2.049,1.903 -0.834,1.27 -1.201,2.215 -1.104,2.839 0.097,0.625 0.723,1.316 1.871,2.074 1.695,1.114 2.915,1.106 3.659,-0.022 l 0.149,-0.225 -1.391,-0.916 c -0.243,0.367 -0.477,0.556 -0.703,0.566 -0.227,0.01 -0.594,-0.151 -1.104,-0.486 -0.524,-0.347 -0.812,-0.671 -0.862,-0.976 -0.052,-0.306 0.11,-0.743 0.484,-1.312 0.026,-0.041 0.087,-0.123 0.179,-0.247 l 3.919,2.577 0.276,-0.424 c 0.73,-1.105 1.04,-1.962 0.938,-2.57 z m -1.892,1.006 -0.147,0.233 -2.522,-1.66 c 0.364,-0.557 0.681,-0.868 0.945,-0.931 0.263,-0.063 0.655,0.075 1.17,0.416 0.531,0.352 0.833,0.646 0.903,0.888 0.07,0.243 -0.047,0.594 -0.349,1.054 z"
   id="path9" />

		<g
   id="POLYLINE_20_">
			<polyline
   points="173.698,37.424 171.036,40.459 167.548,37.4 170.21,34.366 168.799,33.128 162.276,40.565 163.687,41.803      166.506,38.589 169.994,41.646 167.175,44.86 168.586,46.098 175.108,38.66 173.698,37.424    "
   id="polyline9" />

		</g>

		<path
   d="m 178.051,46.705 c -0.047,-0.556 -0.498,-1.289 -1.35,-2.201 -0.779,-0.838 -1.403,-1.301 -1.874,-1.394 -0.469,-0.09 -1.006,0.146 -1.614,0.714 l 1.157,1.24 c 0.473,-0.442 1,-0.354 1.575,0.264 0.4,0.427 0.598,0.77 0.598,1.028 0,0.258 -0.198,0.571 -0.593,0.94 l -0.822,0.766 -0.02,-0.021 c 0.219,-0.538 -0.065,-1.228 -0.846,-2.064 -1.168,-1.254 -2.281,-1.39 -3.335,-0.409 -1.039,0.973 -0.99,2.073 0.154,3.299 0.787,0.844 1.542,1.146 2.266,0.909 l 0.02,0.037 -0.747,0.59 1.133,1.214 3.311,-3.09 c 0.706,-0.659 1.037,-1.267 0.987,-1.822 z m -3.915,2.303 c -0.496,0.464 -1.09,0.327 -1.778,-0.41 -0.423,-0.453 -0.647,-0.797 -0.679,-1.035 -0.028,-0.235 0.121,-0.507 0.449,-0.813 0.474,-0.443 1.032,-0.321 1.67,0.364 0.735,0.788 0.848,1.419 0.338,1.894 z"
   id="path10" />

		<g
   id="SPLINE_49_">
			<path
   d="m 178.438,55.079 c -0.235,-0.021 -0.528,-0.256 -0.88,-0.703 -0.447,-0.57 -0.63,-1.005 -0.549,-1.305 0.08,-0.3 0.5,-0.749 1.26,-1.346 0.784,-0.617 1.333,-0.939 1.638,-0.964 0.307,-0.026 0.664,0.222 1.072,0.743 0.576,0.732 0.546,1.348 -0.088,1.846 l 1.017,1.294 c 0.77,-0.606 1.163,-1.185 1.175,-1.736 0.014,-0.551 -0.349,-1.296 -1.092,-2.239 -0.767,-0.976 -1.473,-1.484 -2.118,-1.525 -0.645,-0.038 -1.515,0.372 -2.61,1.23 -1.12,0.881 -1.733,1.636 -1.838,2.266 -0.105,0.628 0.246,1.456 1.052,2.483 1.1,1.397 2.088,1.88 2.963,1.449 l 0.89,-0.57 0.188,-0.147 -1.021,-1.3 c -0.471,0.372 -0.824,0.547 -1.059,0.524 z"
   id="path11" />

		</g>

		<g
   id="POLYLINE_19_">
			<polyline
   points="187.264,52.866 179.019,58.328 179.934,59.711 182.495,58.015 182.72,58.354 181.403,61.928 182.538,63.644      183.991,59.197 188.042,59.408 186.979,57.802 183.699,57.732 183.463,57.375 188.179,54.25 187.264,52.866    "
   id="polyline11" />

		</g>

		<path
   d="m 190.4,63.395 c -0.621,-1.13 -1.243,-1.779 -1.863,-1.945 -0.621,-0.166 -1.52,0.076 -2.701,0.725 -1.331,0.73 -2.097,1.396 -2.304,1.993 -0.206,0.598 0.021,1.501 0.687,2.708 0.979,1.777 2.059,2.34 3.244,1.689 l 0.236,-0.129 -0.804,-1.459 c -0.385,0.212 -0.68,0.27 -0.885,0.173 -0.204,-0.097 -0.454,-0.413 -0.748,-0.945 -0.301,-0.551 -0.404,-0.973 -0.308,-1.267 0.099,-0.293 0.447,-0.604 1.044,-0.932 0.041,-0.023 0.133,-0.069 0.272,-0.135 l 2.258,4.109 0.446,-0.246 c 1.162,-0.637 1.839,-1.249 2.03,-1.833 0.192,-0.588 -0.007,-1.422 -0.604,-2.506 z m -0.738,1.74 c -0.051,0.246 -0.319,0.502 -0.802,0.767 l -0.237,0.14 -1.456,-2.646 c 0.584,-0.322 1.008,-0.449 1.271,-0.381 0.264,0.067 0.544,0.372 0.842,0.914 0.306,0.557 0.433,0.961 0.382,1.206 z"
   id="path12" />

		<g
   id="SPLINE_48_">
			<path
   d="m 186.287,70.649 0.686,1.511 3.715,-1.684 c 0.998,-0.452 1.667,-0.305 2.009,0.444 0.236,0.523 0.018,0.938 -0.655,1.244 -0.054,0.023 -0.168,0.066 -0.351,0.125 l 0.648,1.426 0.44,-0.201 c 1.399,-0.634 1.849,-1.505 1.346,-2.615 -0.352,-0.774 -0.94,-1.193 -1.761,-1.254 l -0.01,-0.036 0.927,-0.309 -0.685,-1.51 z"
   id="path13" />

		</g>

		<g
   id="SPLINE_47_">
			<path
   d="m 199.271,84.355 c 0.979,-0.303 1.56,-0.752 1.743,-1.351 0.186,-0.599 0.058,-1.607 -0.384,-3.029 -0.464,-1.5 -0.956,-2.443 -1.478,-2.831 -0.522,-0.388 -1.333,-0.411 -2.437,-0.069 -1.079,0.333 -1.719,0.761 -1.92,1.276 -0.198,0.517 -0.108,1.536 0.267,3.058 l 0.242,1.01 c 0.141,0.568 0.163,0.959 0.065,1.175 -0.1,0.214 -0.377,0.392 -0.834,0.534 -0.617,0.191 -1.048,0.201 -1.286,0.033 -0.24,-0.168 -0.482,-0.654 -0.733,-1.457 -0.317,-1.029 -0.438,-1.683 -0.36,-1.958 0.075,-0.276 0.444,-0.517 1.103,-0.722 l 0.199,-0.069 -0.541,-1.744 -0.343,0.114 c -1.1,0.34 -1.753,0.809 -1.963,1.408 -0.209,0.597 -0.083,1.641 0.376,3.125 0.512,1.652 1.026,2.665 1.544,3.035 0.516,0.372 1.401,0.362 2.656,-0.026 1.022,-0.316 1.629,-0.73 1.823,-1.243 0.195,-0.513 0.116,-1.485 -0.242,-2.917 -0.303,-1.209 -0.429,-1.94 -0.376,-2.191 0.054,-0.248 0.38,-0.465 0.976,-0.649 0.503,-0.156 0.873,-0.127 1.111,0.084 0.239,0.211 0.489,0.742 0.75,1.591 0.222,0.72 0.295,1.198 0.22,1.434 -0.077,0.234 -0.373,0.457 -0.891,0.662 l -0.19,0.074 0.542,1.751 z"
   id="path14" />

		</g>

		<path
   d="m 200.175,90.173 c -0.222,-1.069 -0.743,-1.724 -1.557,-1.961 v -0.037 l 1.021,-0.147 -0.346,-1.652 -9.689,2.028 0.353,1.695 3.895,-0.816 0.006,0.029 c -0.641,0.475 -0.849,1.244 -0.627,2.309 0.208,0.997 0.604,1.629 1.181,1.892 0.58,0.264 1.545,0.254 2.897,-0.028 1.296,-0.272 2.149,-0.645 2.562,-1.118 0.41,-0.476 0.511,-1.206 0.304,-2.194 z m -1.547,1.015 c -0.23,0.248 -0.809,0.469 -1.735,0.663 -0.903,0.189 -1.51,0.218 -1.826,0.085 -0.314,-0.13 -0.537,-0.514 -0.669,-1.147 -0.131,-0.625 -0.074,-1.068 0.172,-1.333 0.244,-0.263 0.808,-0.486 1.688,-0.671 0.905,-0.189 1.514,-0.219 1.834,-0.087 0.317,0.13 0.542,0.505 0.671,1.125 0.138,0.663 0.095,1.118 -0.135,1.365 z"
   id="path15" />

		<path
   style="fill:#000000"
   d="m 638,970.68325 c -2.2,-0.65667 -10.6,-2.10819 -18.66667,-3.2256 -8.06666,-1.11741 -17.81984,-2.68026 -21.67372,-3.47299 -3.85389,-0.79274 -11.95389,-1.93518 -18,-2.53875 -24.15339,-2.41119 -46.03082,-7.94013 -60.99294,-15.41435 -7.7,-3.84648 -15.5,-7.44165 -17.33334,-7.98926 -1.83333,-0.54762 -12.63333,-5.50724 -24,-11.02138 C 465.96667,921.50679 450.96667,915.02215 444,912.61063 c -6.96667,-2.41153 -17.76667,-6.58923 -24,-9.28378 -6.23333,-2.69455 -15.83333,-6.59422 -21.33333,-8.66594 -21.7738,-8.20165 -40.74199,-19.8324 -58.88205,-36.10478 C 334.40308,853.72867 321.9,844.48457 312,838.01368 271.50862,811.54752 243.53129,785.57796 232.11488,763.86145 228.87807,757.70432 224.62688,750.56667 222.6678,748 199.67819,717.88044 178.80378,674.62815 176.01456,651.33333 173.82909,633.08093 172.25361,620.48285 170.59542,608 c -0.82803,-6.23333 -1.50525,-21.53333 -1.50495,-34 l 5.5e-4,-22.66667 5.36002,-16.66666 c 13.23188,-41.14372 15.20549,-43.95688 30.88229,-44.01917 7.91071,-0.0314 10.42651,-1.17641 31.97163,-14.55072 6.21773,-3.8597 20.91773,-11.74716 32.66667,-17.52768 22.3272,-10.98506 25.10461,-12.87904 46.47448,-31.69196 7.21202,-6.34909 15.91202,-13.68151 19.33333,-16.29425 17.26947,-13.18814 56.06914,-55.367 77.1932,-83.91622 6.2812,-8.48905 17.85808,-19.88489 28.36069,-27.91718 4.03334,-3.08465 13.64702,-11.71519 21.36375,-19.17897 7.71673,-7.46379 17.31673,-16.63197 21.33333,-20.37374 4.01661,-3.74178 8.58996,-8.56064 10.163,-10.7086 3.1064,-4.24172 33.03291,-21.48181 43.25711,-24.9196 22.01732,-7.4031 94.34547,-5.54308 114.3543,2.94078 10.2631,4.35162 12.87572,5.0038 11.56786,2.88764 -5.25923,-8.50962 0.74215,-39.68004 8.8022,-45.71755 10.22481,-7.65904 12.16159,-8.10428 39.24401,-9.02155 13.98039,-0.4735 26.25217,-1.37592 27.27063,-2.00535 1.97077,-1.21801 15.6492,-4.00272 28.31048,-5.76356 18.76249,-2.60936 35.71403,3.51707 48.34171,17.47111 4.10988,4.54156 6.77455,8.49004 5.92149,8.77439 -0.85306,0.28435 2.94749,5.09542 8.44565,10.69126 28.43878,28.944 34.75632,40.59104 34.79467,64.14765 0.0395,24.27453 -3.04292,35.85882 -11.59831,43.5881 -2.99742,2.70799 -4.76621,5.1515 -3.93065,5.43002 4.83412,1.61137 12.51489,9.07443 16.32953,15.86667 2.41197,4.29466 8.35526,12.01441 13.20732,17.155 8.33893,8.83481 13.90347,16.51253 26.56513,36.65348 8.24615,13.11716 14.48596,32.91052 15.41247,48.89006 3.06032,52.78117 2.95343,54.88528 -4.32355,85.10994 -0.70623,2.93333 -1.71167,10.13333 -2.2343,16 -0.62176,6.97939 -2.0128,12.74076 -4.02405,16.66666 -1.6906,3.3 -3.4915,8.4 -4.00199,11.33334 -0.5105,2.93333 -1.78483,7.02477 -2.83185,9.09209 -10.47628,20.68526 -11.47465,91.97033 -1.64999,117.81116 5.15074,13.54747 10.76383,60.59863 11.02669,92.43008 0.2439,29.53634 -0.59627,36.18094 -8.26107,65.33333 -1.44607,5.5 -3.96331,16 -5.59387,23.33334 -6.84689,30.79346 -37.92338,60.42638 -71.33762,68.02386 -9.56991,2.17593 -34.40672,11.62393 -47.25741,17.97687 -14.07194,6.95667 -27.73987,10.59438 -43.33333,11.53313 -23.80415,1.43304 -94.32694,1.77807 -98.66667,0.48272 z m 94,-42.13581 c 12.35508,-0.69493 23.22368,-3.56337 29.78076,-7.85973 1.6657,-1.09141 6.46955,-3.16826 10.67522,-4.61522 4.20566,-1.44696 13.17357,-4.99746 19.92867,-7.88999 6.75511,-2.89254 16.1519,-6.06691 20.88176,-7.05416 25.75453,-5.37569 43.28918,-25.12796 48.20173,-54.29786 0.81793,-4.85676 2.54668,-12.43048 3.84165,-16.83048 5.32722,-18.10063 5.866,-22.53294 5.67263,-46.66667 -0.2401,-29.96722 -5.06486,-67.06454 -9.33209,-71.754 -4.62117,-5.0784 -5.83078,-8.79698 -7.81938,-24.03833 C 849.58956,655.03344 835.69247,635.03571 792,598.5671 c -4.76667,-3.97857 -15.61118,-13.86959 -24.09893,-21.98003 -40.27233,-38.48215 -51.88803,-46.21496 -56.82569,-37.83001 -2.48922,4.22711 -12.81766,11.90961 -16.01141,11.90961 -5.09251,0 -20.70827,11.36738 -23.73942,17.28093 -1.8305,3.57119 -7.11077,9.53732 -12.8801,14.55315 -15.30766,13.30838 -22.05228,21.6108 -27.98129,34.44412 l -5.40867,11.70705 -1.12405,25.34071 c -1.23699,27.88671 -2.0323,35.48832 -5.23198,50.00737 -0.72725,3.3 -1.64204,10.2 -2.03286,15.33333 -3.02265,39.70144 -4.76326,45.74283 -15.63824,54.27802 -3.07544,2.41376 -8.61474,7.50296 -12.30954,11.30935 -22.5734,23.25512 -91.40444,33.70064 -124.97623,18.96588 C 433.66669,790.68663 419.84997,775.83086 409.90372,746 c -3.42313,-10.26667 -7.65184,-22.09859 -9.39713,-26.29316 -12.3665,-29.7212 7.17512,-74.25065 37.17587,-84.71261 4.77424,-1.66489 8.19948,-4.12824 12.03078,-8.65224 2.94594,-3.47857 7.81562,-7.77504 10.82151,-9.54771 7.09593,-4.18471 10.88443,-8.33214 20.21263,-22.12761 15.46157,-22.86613 17.82034,-26.14508 24.1413,-33.55908 19.95662,-23.40755 34.59998,-48.32564 30.43188,-51.78485 -9.33387,-7.74643 -20.65389,-27.56087 -20.65389,-36.15235 v -5.58192 l -17,1.07463 c -9.35,0.59105 -29.9,1.20994 -45.66667,1.37532 -15.76667,0.16538 -31.06667,0.92746 -34,1.69351 -2.93333,0.76606 -13.13333,2.30767 -22.66667,3.42581 -53.35118,6.25742 -54.55525,6.45582 -69.95693,11.52719 -8.45702,2.78467 -19.049,6.61233 -23.53773,8.50591 -4.48873,1.89358 -11.8161,4.37918 -16.28304,5.52356 -13.61095,3.48696 -47.21745,22.17363 -65.85906,36.62048 -7.25958,5.62602 -12.69005,42.68315 -8.4016,57.33179 0.32203,1.1 1.54848,11.3 2.72544,22.66666 2.29258,22.14087 4.72356,36.13123 7.76277,44.67501 5.51427,15.50165 26.72712,52.80703 35.62922,62.65833 1.32535,1.46666 5.201,7.76666 8.61256,14 12.02547,21.97203 39.96908,46.95173 78.43129,70.11228 3.55093,2.13824 11.95093,8.71915 18.66666,14.62423 17.7224,15.58314 42.09107,31.26349 48.58627,31.26349 0.71018,0 6.01614,2.1644 11.79103,4.80978 5.77488,2.64538 15.89979,6.80187 22.49979,9.23664 6.6,2.43477 17.05097,6.29071 23.22437,8.56875 6.17341,2.27804 15.17341,6.16153 20,8.62997 13.03539,6.66662 24.14078,11.42152 26.67571,11.42152 1.23448,0 5.21197,1.88372 8.83888,4.18605 16.98289,10.78058 34.25001,16.04635 60.59437,18.47881 6.23334,0.57554 18.53334,2.33897 27.33334,3.91873 8.8,1.57975 20.5,3.46322 26,4.18549 5.5,0.72226 10.6,1.58617 11.33333,1.91979 1.53184,0.69689 63.0661,-0.4098 82,-1.47476 z m -15.1859,-10.64403 c -0.95078,-2.47768 0.93076,-6.40651 4.23115,-8.83503 3.89265,-2.86433 19.82445,-36.91324 26.07895,-55.73505 L 751.33333,840.66667 750.96444,796 c -0.20289,-24.56667 -1.01969,-54.56667 -1.81512,-66.66667 -3.3063,-50.29532 -3.13607,-64.28564 0.80059,-65.79628 4.86992,-1.86876 5.59909,1.96414 6.59754,34.68027 1.07273,35.15046 3.1491,90.12631 4.29423,113.69794 1.18362,24.36408 -9.9513,64.08379 -24.16657,86.20528 -0.98508,1.53296 -2.43143,5.13296 -3.21411,8 -0.97668,3.57765 -2.89284,6.20774 -6.1087,8.38466 -2.5771,1.74453 -4.68563,3.69453 -4.68563,4.33334 0,2.04341 -5.01722,1.24176 -5.85257,-0.93513 z M 608.01076,866.41429 C 588.29272,856.27102 594.16762,828.0259 616,828.00393 c 6.28431,-0.006 20.52294,-5.79647 23.70175,-9.63833 3.53472,-4.27201 15.30229,-24.68095 18.66165,-32.3656 5.98421,-13.68908 5.83327,-37.94236 -0.48956,-78.66667 -7.13383,-45.94775 -0.6783,-69.99003 18.79283,-69.99003 16.09907,0 20.65494,7.29112 20.66168,33.06653 0.003,10.49207 0.60386,23.09207 1.33581,28 0.73196,4.90793 2.23196,14.9951 3.33334,22.41594 6.21903,41.90252 1.46911,74.83277 -14.46452,100.27953 -3.98156,6.35875 -8.45273,13.96137 -9.93592,16.8947 -10.58145,20.92709 -51.58966,37.67205 -69.5863,28.41429 z m -291.34409,-130.905 c -13.77103,-6.46824 -15.33334,-10.84877 -15.33334,-42.99296 v -24.90265 l 7.54972,-14.14017 c 4.15234,-7.7771 9.90061,-17.62834 12.77393,-21.89165 2.87333,-4.26331 9.42822,-15.96331 14.56642,-26 12.48579,-24.38904 13.70027,-25.55928 46.22707,-44.54322 25.35407,-14.79765 68.28698,-26.49748 77.22838,-21.04584 18.90706,11.52777 10.41631,35.01941 -14.89773,41.21805 -14.68407,3.59569 -38.43208,13.76423 -50.11445,21.45828 -3.3,2.17339 -7.83832,4.91982 -10.08516,6.10318 -3.16634,1.66764 -6.01529,5.94623 -12.66667,19.02296 -4.71983,9.27927 -11.07808,20.54919 -14.12945,25.04428 -14.39691,21.2086 -20.46437,45.06411 -13.03081,51.23341 19.35804,16.06575 -4.34116,42.59016 -28.08791,31.43633 z m 218.1117,29.39694 c 13.56221,-2.8078 15.956,-3.87503 23.5191,-10.48561 3.62068,-3.16467 8.19666,-6.95395 10.16884,-8.42062 4.21811,-3.13691 5.56594,-9.42406 6.86012,-32 0.46243,-8.06667 2.0308,-20.03438 3.48526,-26.59493 1.77252,-7.99521 3.06856,-21.18423 3.93067,-40 1.47709,-32.2382 1.83321,-34.21085 8.39742,-46.51581 C 593.8129,595.87836 596,590.58891 596,589.13494 c 0,-4.58589 2.69249,-8.12182 16.20146,-21.27663 21.27876,-20.72091 24.81732,-30.95272 13.72279,-39.67968 -3.56045,-2.80065 -4.99961,-2.85133 -45.42519,-1.59972 -2.13804,0.0662 -4.5801,3.11739 -9.94137,12.42109 -10.27371,17.82855 -26.62272,41.83792 -34.33582,50.42394 -3.66804,4.08317 -11.81343,15.18317 -18.10088,24.66667 -17.67456,26.65897 -18.05504,27.15483 -23.76993,30.9787 -9.00169,6.0231 -10.67894,7.39414 -20.35106,16.63564 -5.13333,4.90479 -11.43333,9.61221 -14,10.46094 -2.56667,0.84874 -6.80923,3.40862 -9.42792,5.68863 -2.61869,2.28001 -6.36869,5.49151 -8.33334,7.13666 -5.12565,4.29212 -4.93363,13.83883 0.57483,28.57885 2.2808,6.10315 5.90759,16.19664 8.05954,22.42997 10.26347,29.72915 36.41419,38.73834 83.90526,28.90623 z M 854.75392,597.66667 c 0.72842,-8.34877 10.01095,-45.17797 14.15143,-56.14694 1.76058,-4.66414 4.06111,-14.56414 5.11229,-22 1.05117,-7.43585 3.19109,-18.31973 4.75537,-24.1864 2.39562,-8.98455 2.69182,-12.55904 1.87826,-22.66666 -0.53123,-6.6 -1.18296,-18.26153 -1.44828,-25.91451 -0.73296,-21.14155 -4.15963,-29.95024 -22.39624,-57.57239 -2.12295,-3.21554 -7.88142,-10.10189 -12.7966,-15.30299 -4.91517,-5.20111 -10.31842,-11.91503 -12.00721,-14.91983 -2.66364,-4.73931 -4.32492,-5.9256 -12.53673,-8.95223 -5.20642,-1.91894 -11.56621,-4.8555 -14.13288,-6.5257 -33.94233,-22.08719 -54.81445,-34.14569 -59.10294,-34.14569 -1.02205,0 -4.00314,-1.45555 -6.62465,-3.23455 C 728.69066,298.69161 684.98165,281.01781 662,274.7188 c -5.86667,-1.60799 -14.56667,-4.62281 -19.33333,-6.6996 -26.23426,-11.43003 -83.32875,-10.16372 -105.631,2.34282 -21.60502,12.11555 -21.37674,12.30465 14.85468,12.30465 31.71703,0 37.44298,0.82651 37.44298,5.4047 0,4.06381 -68.08739,4.11333 -70.59304,0.0513 -1.44823,-2.34778 -7.11121,1.99224 -21.10506,16.17456 l -9.6981,9.82873 13.03144,-0.50081 c 16.98026,-0.65257 37.58549,-4.24564 48.01563,-8.37279 7.3049,-2.89051 9.81688,3.89729 2.7875,7.53232 -2.32556,1.2026 -6.07556,2.4498 -8.33333,2.77157 -2.25777,0.32176 -6.80504,1.39003 -10.10504,2.37393 -7.62771,2.2742 -24.73635,4.46399 -42.64938,5.45884 -15.5483,0.86351 -15.23784,0.71715 -31.63887,14.91549 -8.72356,7.55197 -17.05976,18.45031 -15.05872,19.68702 0.6496,0.40147 4.08863,0.62704 7.64229,0.50126 3.55367,-0.12578 7.64099,0.39375 9.08295,1.1545 1.44195,0.76076 14.92173,1.81946 29.95507,2.35267 28.34774,1.00546 32,1.68871 32,5.98649 0,4.73039 -6.0171,4.89301 -48,1.29726 -34.7548,-2.97668 -39.05343,-3.04881 -40.78243,-0.68426 -4.65605,6.36753 -28.72146,32.89177 -44.48942,49.03503 C 379.09808,428.17634 372.38301,436 373.63167,436 c 3.98878,0 22.90964,-2.77443 33.035,-4.84403 6.46967,-1.32239 19.8849,-2.21188 38,-2.51957 15.4,-0.26157 38.21646,-0.90032 50.70324,-1.41944 15.42017,-0.64107 26.20869,-0.43129 33.63064,0.65394 6.01008,0.87879 17.69362,2.12522 25.96343,2.76983 21.36356,1.66525 42.70946,5.8021 54.5852,10.57866 5.61872,2.25991 14.01872,5.07915 18.66667,6.26497 4.64795,1.18583 10.55082,3.21436 13.11748,4.50785 2.56667,1.2935 11.76757,5.1527 20.44644,8.57602 8.67888,3.42332 25.47888,11.36155 37.33334,17.64051 11.85446,6.27897 27.85356,14.74012 35.55356,18.80257 22.29645,11.7634 41.34239,27.90442 103.80519,87.97266 13.4823,12.96545 16.08079,14.98951 16.28206,12.6827 z M 802,277.38556 c 3.66667,0.0233 8.16667,0.89975 10,1.94777 8.43805,4.82363 11.07769,2.43579 10.81278,-9.78132 -0.23296,-10.74312 -3.45297,-15.94682 -21.17432,-34.21868 -6.40115,-6.6 -13.73846,-15.16838 -16.30513,-19.04085 -5.16907,-7.79886 -8.80731,-9.50053 -15.29595,-7.15421 -2.32469,0.84062 -5.86391,1.5284 -7.86492,1.5284 -2.00102,0 -5.49454,0.95994 -7.76337,2.1332 -3.06538,1.58516 -9.98483,2.35588 -26.93379,3 l -22.80863,0.8668 -0.74212,10.66666 c -0.40816,5.86667 -1.18547,11.62054 -1.72735,12.78638 -1.22527,2.63617 0.84671,4.36534 7.8028,6.51186 6.21656,1.91831 30.13453,12.73555 57.82034,26.15006 l 19.50005,9.44829 4.00647,-2.44331 c 2.51288,-1.53246 6.49177,-2.42755 10.67314,-2.40105 z M 965.65448,873.34054 C 955.74954,867.30142 953.51613,856.18147 959.35981,842 c 5.63752,-13.68114 5.74859,-11.46795 -2.77711,-55.33333 -1.21151,-6.23334 -3.6347,-15.83334 -5.38487,-21.33334 -1.75016,-5.5 -5.24065,-16.9 -7.75662,-25.33333 -2.51598,-8.43333 -6.65509,-21.17194 -9.19802,-28.30802 -14.98259,-42.04474 -10.3931,-64.83254 12.75817,-63.34699 11.92405,0.76513 17.12583,6.63849 19.76935,22.32168 1.48703,8.82211 6.0046,25.07829 9.26329,33.33333 2.73192,6.9206 6.94027,20.89621 10.59345,35.17998 1.39787,5.46566 3.70376,12.23611 5.1242,15.04545 1.42043,2.80935 3.33888,10.5079 4.26323,17.1079 0.92436,6.6 2.43843,14.15335 3.36462,16.78522 16.2298,46.11889 -5.94682,102.15856 -33.72502,85.22199 z M 1054.648,800.6176 c -1.2712,-3.3436 -4.9728,-25.30892 -7.9684,-47.28427 -3.2122,-23.56498 -7.6488,-40.79867 -11.7473,-45.63172 -2.8511,-3.36212 -8.5158,-17.16761 -25.3177,-61.70161 -4.923,-13.04875 -15.2595,-32.97654 -24.24169,-46.73588 -3.68843,-5.65011 -6.72294,-10.94595 -6.74334,-11.76853 -0.0204,-0.82257 -1.78089,-3.79948 -3.91219,-6.61535 C 970.69631,575.56763 970.63303,572 974.55986,572 c 3.03369,0 8.45511,5.95051 12.14779,13.33333 1.65056,3.3 5.37158,9.49808 8.26892,13.77351 2.89734,4.27542 6.50563,10.57542 8.01843,14 1.5128,3.42457 4.2213,8.45188 6.0188,11.17179 3.2305,4.88838 7.7307,16.05983 17.7899,44.16259 7.1064,19.85349 18.1938,43.20947 17.0384,35.89211 -0.4589,-2.90639 0.4174,-4.33333 2.6613,-4.33333 4.7509,0 7.195,5.64818 9.5201,22 0.6256,4.4 1.864,11 2.7519,14.66667 2.9486,12.17626 5.2983,62.64466 3.0835,66.22838 -1.4912,2.41269 -5.9649,0.99972 -7.2109,-2.27745 z M 106.98781,484.0072 c -13.729657,-8.37107 -12.984708,-25.31593 1.58356,-36.02023 10.47919,-7.69977 46.11422,-38.15745 56.0953,-47.94532 C 176.29044,388.6429 183.43845,385.06182 214,375.3262 c 13.2,-4.20497 26.16112,-8.74043 28.80248,-10.0788 25.09033,-12.71318 61.18189,-12.01637 70.19299,1.3552 10.25711,15.22052 -1.16213,30.71656 -22.64221,30.72575 -11.36138,0.005 -32.12646,5.38722 -43.67237,11.31999 -1.84116,0.94606 -9.19606,3.27258 -16.34423,5.17004 -21.21707,5.632 -30.525,10.22981 -40.07576,19.79607 -4.60458,4.61205 -13.04882,12.28555 -18.76497,17.05222 -5.71616,4.76666 -15.59117,13.05653 -21.94447,18.42191 -19.73075,16.6627 -32.41269,21.10774 -42.56365,14.91862 z M 126.33906,385 c -1.33015,-3.61704 6.96915,-11.11959 15.18497,-13.72719 1.7092,-0.54248 5.21552,-2.30947 7.79181,-3.92663 2.57629,-1.61717 9.18416,-5.54217 14.68416,-8.72223 5.5,-3.18006 12.4,-7.68771 15.33333,-10.01701 2.93334,-2.3293 9.10355,-6.1376 13.7116,-8.46289 4.60804,-2.32529 12.26211,-6.60498 17.00904,-9.51042 22.94151,-14.04175 48.39796,-24.10057 84.6127,-33.43371 25.26695,-6.51171 36.21031,-8.35033 37.47935,-6.29699 2.35189,3.80544 -2.07076,6.79713 -13.55842,9.17158 -42.64044,8.81359 -77.97303,21.26775 -101.92093,35.92549 -4.71725,2.88727 -12.34703,7.1336 -16.95507,9.43628 -4.60805,2.30269 -11.37827,6.39493 -15.04493,9.09388 -8.46189,6.22859 -24.02185,15.79229 -35.84318,22.03046 -5.04707,2.66337 -10.8397,6.02679 -12.87249,7.47427 -4.19349,2.98603 -8.70227,3.43875 -9.61194,0.96511 z"
   id="path1"
   transform="matrix(0.18175126,0,0,0.18175126,-1.1732367,-1.0244582)" />
<path
   d="m 201.329,97.398 c -0.135,-1.135 -0.367,-1.88 -0.691,-2.229 -0.325,-0.351 -0.9,-0.475 -1.724,-0.377 l 0.204,1.684 c 0.643,-0.079 1.017,0.302 1.116,1.142 0.072,0.58 0.03,0.974 -0.123,1.183 -0.153,0.208 -0.499,0.344 -1.034,0.408 l -1.119,0.134 -0.002,-0.028 c 0.493,-0.308 0.672,-1.03 0.534,-2.167 -0.205,-1.704 -1.022,-2.468 -2.451,-2.296 -1.414,0.169 -2.021,1.087 -1.822,2.752 0.139,1.146 0.571,1.837 1.294,2.071 l -0.002,0.044 -0.953,0.035 0.198,1.648 4.497,-0.542 c 0.96,-0.116 1.584,-0.413 1.871,-0.89 0.286,-0.477 0.357,-1.334 0.207,-2.572 z m -4.728,2.123 c -0.674,0.081 -1.074,-0.379 -1.192,-1.382 -0.076,-0.614 -0.054,-1.025 0.061,-1.233 0.118,-0.208 0.398,-0.34 0.844,-0.394 0.641,-0.077 1.02,0.35 1.131,1.28 0.129,1.069 -0.151,1.646 -0.844,1.729 z"
   id="path16" />

		<g
   id="SPLINE_46_">
			<path
   d="m 196.499,106.972 c -0.176,-0.155 -0.275,-0.518 -0.297,-1.088 -0.026,-0.724 0.083,-1.184 0.323,-1.377 0.241,-0.195 0.848,-0.311 1.811,-0.345 0.999,-0.037 1.631,0.025 1.892,0.187 0.263,0.159 0.404,0.569 0.429,1.23 0.034,0.933 -0.354,1.413 -1.158,1.441 l 0.059,1.644 c 0.98,-0.035 1.638,-0.271 1.972,-0.709 0.335,-0.438 0.48,-1.255 0.438,-2.452 -0.044,-1.24 -0.317,-2.067 -0.818,-2.479 -0.497,-0.413 -1.44,-0.592 -2.832,-0.544 -1.424,0.052 -2.363,0.302 -2.818,0.748 -0.454,0.447 -0.658,1.321 -0.612,2.625 0.063,1.776 0.578,2.749 1.542,2.917 l 1.054,0.063 0.237,-0.008 -0.06,-1.651 c -0.596,0.02 -0.985,-0.048 -1.162,-0.202 z"
   id="path17" />

		</g>

		<path
   d="m 201.355,110.648 c -0.443,-0.466 -1.335,-0.729 -2.684,-0.791 -1.514,-0.07 -2.516,0.095 -3.005,0.498 -0.486,0.403 -0.762,1.293 -0.827,2.668 -0.094,2.027 0.537,3.071 1.887,3.133 l 0.269,0.013 0.077,-1.664 c -0.44,-0.019 -0.723,-0.124 -0.846,-0.313 -0.123,-0.19 -0.173,-0.588 -0.143,-1.196 0.027,-0.628 0.161,-1.041 0.397,-1.241 0.236,-0.201 0.694,-0.284 1.377,-0.252 0.047,0.001 0.147,0.012 0.303,0.027 l -0.219,4.683 0.508,0.023 c 1.323,0.063 2.219,-0.107 2.689,-0.506 0.468,-0.399 0.734,-1.216 0.792,-2.451 0.06,-1.288 -0.131,-2.165 -0.575,-2.631 z m -0.659,2.503 c -0.03,0.638 -0.132,1.046 -0.304,1.229 -0.175,0.183 -0.537,0.262 -1.084,0.237 l -0.277,-0.007 0.139,-3.017 c 0.667,0.031 1.093,0.144 1.282,0.34 0.192,0.195 0.272,0.602 0.244,1.218 z"
   id="path18" />

		<g
   id="SPLINE_45_">
			<path
   d="m 93.915,196.373 1.241,-7.005 -1.175,-0.208 -0.493,2.786 c -0.147,0.83 -0.621,1.176 -1.422,1.035 -0.586,-0.105 -0.826,-0.444 -0.725,-1.02 l 0.028,-0.156 0.534,-3.014 -1.175,-0.208 -0.591,3.336 c -0.191,1.082 0.285,1.727 1.43,1.93 0.788,0.142 1.341,-0.063 1.664,-0.605 l 0.024,0.01 -0.516,2.91 z"
   id="path19" />

		</g>

		<g
   id="SPLINE_44_">
			<path
   d="m 87.263,192.889 -0.258,1.083 1.162,0.276 0.257,-1.086 0.629,0.151 0.209,-0.883 -0.627,-0.148 0.617,-2.603 c 0.226,-0.95 -0.18,-1.547 -1.213,-1.792 -1.038,-0.246 -1.677,-0.007 -1.917,0.717 -0.052,0.156 -0.104,0.345 -0.156,0.569 l -0.058,0.244 0.988,0.234 0.046,-0.192 c 0.128,-0.544 0.382,-0.772 0.756,-0.683 0.342,0.081 0.46,0.345 0.353,0.795 l -0.577,2.435 -1.866,-0.443 -0.209,0.882 z"
   id="path20" />

		</g>

		<g
   id="SPLINE_43_">
			<path
   d="m 83.184,191.823 -0.308,1.072 1.146,0.332 0.311,-1.071 0.621,0.179 0.251,-0.872 -0.621,-0.179 0.742,-2.568 c 0.271,-0.938 -0.105,-1.553 -1.127,-1.847 -1.024,-0.296 -1.674,-0.087 -1.948,0.624 -0.058,0.154 -0.12,0.34 -0.183,0.561 l -0.07,0.24 0.978,0.281 0.055,-0.191 c 0.156,-0.538 0.419,-0.753 0.789,-0.647 0.338,0.099 0.441,0.37 0.314,0.814 l -0.695,2.402 -1.841,-0.531 -0.252,0.87 z"
   id="path21" />

		</g>

		<path
   d="m 81.541,183.862 -0.952,2.699 -0.02,-0.009 c -0.054,-0.571 -0.447,-0.984 -1.186,-1.247 -0.69,-0.243 -1.226,-0.234 -1.603,0.022 -0.379,0.256 -0.733,0.853 -1.063,1.79 -0.316,0.898 -0.405,1.562 -0.268,1.993 0.138,0.43 0.548,0.765 1.232,1.006 0.742,0.262 1.336,0.187 1.787,-0.225 l 0.022,0.013 -0.29,0.683 1.146,0.404 2.369,-6.712 z m -1.543,4.364 c -0.221,0.625 -0.429,1.012 -0.63,1.16 -0.199,0.148 -0.513,0.146 -0.942,-0.007 -0.459,-0.163 -0.721,-0.36 -0.788,-0.594 -0.067,-0.232 0.013,-0.671 0.239,-1.313 0.221,-0.625 0.431,-1.011 0.629,-1.155 0.198,-0.144 0.516,-0.138 0.955,0.017 0.432,0.152 0.683,0.354 0.754,0.604 0.069,0.249 -0.003,0.679 -0.217,1.288 z"
   id="path22" />

		<g
   id="SPLINE_42_">
			<path
   d="m 71.45,187.295 c 0.187,0.292 0.661,0.601 1.424,0.927 0.809,0.346 1.395,0.486 1.757,0.424 0.363,-0.063 0.658,-0.359 0.881,-0.88 0.25,-0.585 0.258,-1.039 0.026,-1.356 -0.232,-0.317 -0.838,-0.687 -1.82,-1.106 -0.434,-0.187 -0.568,-0.472 -0.404,-0.858 0.172,-0.403 0.605,-0.456 1.299,-0.16 0.67,0.286 0.896,0.625 0.678,1.01 l -0.094,0.142 1.14,0.487 0.049,-0.114 c 0.229,-0.533 0.24,-0.958 0.036,-1.276 -0.205,-0.318 -0.698,-0.646 -1.48,-0.98 -0.814,-0.348 -1.425,-0.483 -1.832,-0.401 -0.407,0.081 -0.729,0.401 -0.97,0.96 -0.225,0.524 -0.254,0.92 -0.089,1.191 0.163,0.27 0.629,0.592 1.395,0.965 0.57,0.277 0.893,0.461 0.974,0.551 0.081,0.093 0.066,0.265 -0.042,0.517 -0.16,0.37 -0.524,0.433 -1.096,0.189 -0.399,-0.171 -0.638,-0.304 -0.719,-0.403 -0.081,-0.098 -0.084,-0.263 -0.014,-0.493 l 0.023,-0.093 -1.073,-0.458 c -0.22,0.518 -0.237,0.924 -0.049,1.215 z"
   id="path23" />

		</g>

		<g
   id="POLYLINE_18_">
			<polyline
   points="69.88,186.808 70.436,185.652 69.361,185.134 68.805,186.289 69.88,186.808    "
   id="polyline23" />

		</g>

		<g
   id="POLYLINE_17_">
			<polyline
   points="71.486,183.475 72.042,182.32 70.967,181.802 70.411,182.958 71.486,183.475    "
   id="polyline24" />

		</g>

		<g
   id="POLYLINE_16_">
			<polyline
   points="62.809,185.537 72.06,180.057 71.274,179.626 62.024,185.106 62.809,185.537    "
   id="polyline25" />

		</g>

		<g
   id="POLYLINE_15_">
			<polyline
   points="56.982,181.894 66.627,177.145 65.877,176.656 56.231,181.404 56.982,181.894    "
   id="polyline26" />

		</g>

		<g
   id="SPLINE_41_">
			<path
   d="m 59.196,174.781 -0.948,-0.722 -1.792,2.35 c -0.461,0.605 -1.011,0.663 -1.649,0.178 -0.421,-0.32 -0.54,-0.646 -0.359,-0.975 l 0.191,-0.293 0.114,-0.15 1.82,-2.387 -0.949,-0.725 -2.056,2.699 c -0.666,0.873 -0.53,1.666 0.405,2.38 0.645,0.49 1.241,0.567 1.79,0.231 l 0.017,0.02 -0.545,0.64 0.94,0.715 z"
   id="path26" />

		</g>

		<path
   d="m 53.171,169.883 c -0.707,-0.616 -1.282,-0.892 -1.729,-0.825 -0.446,0.065 -1.033,0.517 -1.76,1.349 -0.651,0.745 -0.965,1.333 -0.942,1.759 0.023,0.428 0.396,0.958 1.121,1.591 0.746,0.654 1.332,0.958 1.76,0.918 0.428,-0.042 0.985,-0.456 1.674,-1.243 0.715,-0.821 1.064,-1.448 1.049,-1.886 -0.014,-0.438 -0.406,-0.992 -1.173,-1.663 z m -0.814,2.784 c -0.432,0.494 -0.757,0.765 -0.978,0.811 -0.22,0.046 -0.517,-0.096 -0.89,-0.422 -0.369,-0.32 -0.546,-0.595 -0.532,-0.817 0.015,-0.224 0.23,-0.572 0.65,-1.052 0.496,-0.567 0.858,-0.883 1.086,-0.947 0.228,-0.065 0.529,0.067 0.903,0.395 0.388,0.339 0.568,0.619 0.541,0.845 -0.026,0.227 -0.286,0.622 -0.78,1.187 z"
   id="path27" />

		<g
   id="POLYLINE_14_">
			<polyline
   points="47.308,171.359 50.76,167.768 49.899,166.94 46.448,170.534 47.308,171.359    "
   id="polyline27" />

		</g>

		<g
   id="POLYLINE_13_">
			<polyline
   points="45.83,172.895 46.52,172.178 45.659,171.351 44.969,172.069 45.83,172.895    "
   id="polyline28" />

		</g>

		<g
   id="SPLINE_40_">
			<path
   d="m 43.115,166.782 c 0.057,0.341 0.371,0.813 0.943,1.416 0.605,0.637 1.088,0.999 1.446,1.083 0.358,0.086 0.746,-0.068 1.158,-0.461 0.461,-0.437 0.647,-0.849 0.561,-1.232 -0.087,-0.385 -0.499,-0.963 -1.233,-1.737 -0.325,-0.342 -0.336,-0.659 -0.032,-0.949 0.317,-0.302 0.736,-0.179 1.255,0.368 0.502,0.529 0.576,0.927 0.224,1.196 l -0.143,0.094 0.854,0.899 0.09,-0.088 c 0.422,-0.399 0.6,-0.785 0.539,-1.157 -0.063,-0.373 -0.385,-0.868 -0.972,-1.485 -0.61,-0.642 -1.119,-1.006 -1.525,-1.093 -0.405,-0.087 -0.828,0.079 -1.269,0.498 -0.413,0.394 -0.598,0.745 -0.554,1.059 0.042,0.313 0.343,0.792 0.899,1.438 0.412,0.479 0.637,0.779 0.676,0.892 0.038,0.116 -0.044,0.27 -0.244,0.458 -0.292,0.276 -0.653,0.191 -1.08,-0.261 -0.298,-0.315 -0.465,-0.532 -0.5,-0.657 -0.036,-0.121 0.027,-0.274 0.183,-0.456 l 0.058,-0.075 -0.805,-0.848 c -0.407,0.39 -0.585,0.756 -0.529,1.098 z"
   id="path28" />

		</g>

		<path
   d="m 44.217,160.708 c -0.936,-1.12 -1.776,-1.368 -2.522,-0.743 l -0.148,0.122 0.768,0.919 c 0.244,-0.204 0.444,-0.285 0.602,-0.245 0.157,0.041 0.377,0.229 0.658,0.565 0.289,0.345 0.42,0.629 0.391,0.85 -0.028,0.222 -0.231,0.488 -0.607,0.803 l -0.173,0.131 -2.163,-2.587 -0.279,0.233 c -0.731,0.612 -1.124,1.136 -1.18,1.577 -0.055,0.44 0.202,1.002 0.772,1.683 0.595,0.713 1.123,1.085 1.584,1.117 0.461,0.031 1.063,-0.266 1.806,-0.887 0.837,-0.699 1.288,-1.273 1.35,-1.724 0.062,-0.449 -0.225,-1.054 -0.859,-1.814 z m -2.443,3.309 c -0.196,-0.013 -0.436,-0.188 -0.721,-0.529 -0.293,-0.354 -0.439,-0.618 -0.437,-0.801 0.002,-0.18 0.155,-0.398 0.459,-0.652 l 0.148,-0.131 1.393,1.669 c -0.366,0.305 -0.648,0.454 -0.842,0.444 z"
   id="path29" />

		<path
   d="m 41.522,157.4 -0.605,0.506 -0.015,-0.021 c 0.313,-0.529 0.239,-1.106 -0.217,-1.73 -0.451,-0.619 -0.901,-0.929 -1.353,-0.933 -0.453,-0.002 -1.095,0.301 -1.93,0.908 -0.762,0.559 -1.207,1.045 -1.332,1.466 -0.126,0.42 0.022,0.92 0.444,1.498 0.492,0.674 1.011,0.939 1.554,0.794 l 0.007,0.028 -2.298,1.676 0.704,0.965 5.746,-4.194 z m -1.1,0.539 c -0.095,0.232 -0.445,0.571 -1.055,1.017 -0.778,0.566 -1.395,0.538 -1.851,-0.09 -0.263,-0.356 -0.354,-0.648 -0.271,-0.875 0.082,-0.225 0.385,-0.529 0.913,-0.912 0.566,-0.416 0.969,-0.626 1.207,-0.633 0.238,-0.006 0.5,0.188 0.788,0.581 0.274,0.375 0.364,0.68 0.269,0.912 z"
   id="path30" />

		<g
   id="SPLINE_39_">
			<path
   d="m 38.973,153.854 -0.632,-1.013 -2.488,1.556 c -0.668,0.417 -1.159,0.376 -1.473,-0.124 -0.218,-0.351 -0.103,-0.667 0.349,-0.949 0.034,-0.023 0.113,-0.063 0.236,-0.124 l -0.597,-0.954 -0.297,0.185 c -0.937,0.586 -1.173,1.251 -0.708,1.993 0.324,0.518 0.783,0.761 1.375,0.724 l 0.011,0.026 -0.631,0.308 0.633,1.012 z"
   id="path31" />

		</g>

		<g
   id="POLYLINE_12_">
			<polyline
   points="32.349,152.634 36.646,150.113 36.042,149.083 31.746,151.605 32.349,152.634    "
   id="polyline31" />

		</g>

		<g
   id="POLYLINE_11_">
			<polyline
   points="30.512,153.714 31.369,153.209 30.766,152.18 29.908,152.684 30.512,153.714    "
   id="polyline32" />

		</g>

		<path
   d="m 34.714,146.56 c -0.362,-0.692 -0.855,-1.004 -1.478,-0.942 l -0.005,-0.021 0.731,-0.338 -0.541,-1.028 -6.297,3.307 0.555,1.058 2.514,-1.322 0.014,0.016 c -0.361,0.417 -0.353,0.987 0.026,1.706 0.325,0.62 0.706,0.975 1.139,1.055 0.434,0.083 1.045,-0.083 1.832,-0.496 0.975,-0.512 1.563,-0.965 1.762,-1.357 0.199,-0.394 0.116,-0.941 -0.252,-1.638 z m -0.858,1.062 c -0.124,0.214 -0.505,0.489 -1.145,0.826 -0.554,0.289 -0.945,0.422 -1.174,0.393 -0.229,-0.028 -0.448,-0.24 -0.655,-0.634 -0.217,-0.412 -0.274,-0.727 -0.173,-0.947 0.099,-0.221 0.422,-0.473 0.962,-0.756 0.656,-0.343 1.105,-0.505 1.349,-0.481 0.244,0.022 0.477,0.247 0.701,0.671 0.213,0.404 0.258,0.714 0.135,0.928 z"
   id="path32" />

		<path
   d="m 34.167,140.532 c -0.329,-0.818 -0.695,-1.322 -1.099,-1.514 -0.404,-0.192 -0.982,-0.137 -1.735,0.167 l -4.708,1.896 0.445,1.105 0.743,-0.36 0.01,0.023 c -0.452,0.448 -0.531,1.039 -0.235,1.774 0.271,0.674 0.625,1.072 1.06,1.196 0.436,0.121 1.088,0.008 1.958,-0.342 0.924,-0.373 1.505,-0.754 1.74,-1.147 0.236,-0.393 0.212,-0.939 -0.07,-1.637 -0.284,-0.707 -0.713,-1.059 -1.284,-1.057 l -0.005,-0.025 1.041,-0.417 c 0.567,-0.229 0.988,0 1.265,0.687 0.156,0.391 0.214,0.657 0.175,0.807 -0.04,0.146 -0.21,0.28 -0.51,0.401 l 0.432,1.073 c 0.628,-0.253 0.996,-0.556 1.1,-0.91 0.103,-0.354 -0.005,-0.927 -0.323,-1.72 z m -2.896,1.195 c 0.175,0.435 0.196,0.748 0.064,0.941 -0.131,0.194 -0.522,0.423 -1.174,0.685 -0.612,0.248 -1.029,0.345 -1.251,0.292 -0.221,-0.051 -0.416,-0.29 -0.589,-0.715 -0.177,-0.445 -0.205,-0.767 -0.079,-0.967 0.125,-0.201 0.492,-0.424 1.102,-0.667 0.635,-0.255 1.071,-0.355 1.308,-0.302 0.237,0.053 0.444,0.298 0.619,0.733 z"
   id="path33" />

		<path
   d="m 30.06,136.126 c -0.5,-1.37 -1.208,-1.889 -2.122,-1.555 l -0.182,0.066 0.413,1.125 c 0.296,-0.105 0.512,-0.115 0.648,-0.024 0.134,0.092 0.275,0.342 0.427,0.752 0.155,0.425 0.181,0.736 0.082,0.933 -0.102,0.199 -0.383,0.383 -0.843,0.55 -0.033,0.012 -0.103,0.033 -0.211,0.065 l -1.157,-3.167 -0.343,0.126 c -0.895,0.326 -1.441,0.688 -1.644,1.083 -0.2,0.396 -0.147,1.01 0.158,1.847 0.317,0.87 0.688,1.399 1.112,1.583 0.423,0.186 1.089,0.111 2,-0.221 1.025,-0.375 1.644,-0.764 1.854,-1.166 0.213,-0.401 0.149,-1.068 -0.192,-1.997 z m -3.419,2.287 c -0.181,-0.078 -0.347,-0.325 -0.5,-0.742 -0.158,-0.431 -0.204,-0.73 -0.141,-0.901 0.065,-0.168 0.282,-0.321 0.655,-0.458 l 0.184,-0.073 0.745,2.041 c -0.45,0.166 -0.765,0.209 -0.943,0.133 z"
   id="path34" />

		<g
   id="POLYLINE_10_">
			<polyline
   points="29.013,133.269 27.791,133.652 27.433,132.513 28.656,132.129 29.013,133.269    "
   id="polyline34" />

		</g>

		<g
   id="SPLINE_38_">
			<path
   d="m 28.327,131.127 -0.303,-1.155 -2.857,0.751 c -0.736,0.193 -1.206,-0.099 -1.41,-0.873 -0.134,-0.513 -0.028,-0.841 0.317,-0.99 l 0.331,-0.114 0.183,-0.048 2.903,-0.764 -0.304,-1.153 -3.281,0.864 c -1.061,0.278 -1.444,0.988 -1.144,2.126 0.206,0.783 0.629,1.209 1.27,1.284 l 0.001,0.026 -0.823,0.168 0.299,1.144 z"
   id="path35" />

		</g>

		<path
   d="m 26.595,123.575 c -0.277,-1.433 -0.893,-2.055 -1.848,-1.873 l -0.189,0.038 0.228,1.176 c 0.311,-0.057 0.525,-0.033 0.642,0.08 0.12,0.111 0.221,0.383 0.304,0.812 0.085,0.444 0.062,0.754 -0.069,0.935 -0.132,0.178 -0.438,0.315 -0.919,0.406 -0.034,0.006 -0.106,0.019 -0.216,0.033 l -0.639,-3.311 -0.359,0.068 c -0.935,0.181 -1.533,0.449 -1.795,0.809 -0.261,0.359 -0.308,0.974 -0.138,1.846 0.175,0.911 0.457,1.492 0.845,1.742 0.39,0.25 1.058,0.283 2.01,0.1 1.071,-0.207 1.744,-0.491 2.016,-0.855 0.271,-0.366 0.316,-1.034 0.127,-2.006 z m -3.74,1.714 c -0.166,-0.104 -0.291,-0.375 -0.375,-0.813 -0.086,-0.448 -0.084,-0.752 0.003,-0.91 0.091,-0.157 0.331,-0.274 0.719,-0.348 l 0.193,-0.044 0.413,2.136 c -0.47,0.09 -0.789,0.083 -0.953,-0.021 z"
   id="path36" />

		<g
   id="SPLINE_35_">
			<path
   d="m 20.894,119.945 -1.105,0.149 0.16,1.182 1.106,-0.148 0.085,0.639 0.897,-0.12 -0.085,-0.639 2.649,-0.358 c 0.967,-0.132 1.38,-0.724 1.237,-1.777 -0.142,-1.058 -0.595,-1.567 -1.356,-1.531 -0.165,0.009 -0.36,0.026 -0.587,0.058 l -0.249,0.034 0.135,1.005 0.196,-0.024 c 0.554,-0.076 0.857,0.077 0.909,0.46 0.047,0.348 -0.158,0.552 -0.616,0.614 l -2.479,0.335 -0.256,-1.9 -0.898,0.121 z"
   id="path37" />

		</g>

		<g
   id="SPLINE_34_">
			<path
   d="m 113.123,203.627 -0.016,-0.178 c -0.036,-0.462 0.004,-0.747 0.12,-0.856 0.117,-0.107 0.559,-0.264 1.321,-0.466 0.922,-0.248 1.503,-0.512 1.744,-0.79 0.241,-0.279 0.33,-0.8 0.269,-1.564 -0.064,-0.809 -0.278,-1.345 -0.643,-1.606 -0.365,-0.261 -1.026,-0.354 -1.983,-0.279 -0.979,0.077 -1.627,0.275 -1.945,0.585 -0.318,0.313 -0.443,0.882 -0.377,1.707 l 0.021,0.276 1.223,-0.096 -0.021,-0.28 c -0.04,-0.479 0.01,-0.785 0.145,-0.919 0.134,-0.135 0.476,-0.225 1.03,-0.269 0.536,-0.042 0.879,-0.008 1.034,0.102 0.152,0.111 0.248,0.394 0.283,0.849 0.037,0.477 -0.011,0.776 -0.146,0.902 -0.133,0.125 -0.581,0.287 -1.344,0.487 -0.92,0.24 -1.497,0.485 -1.726,0.732 -0.233,0.248 -0.318,0.719 -0.265,1.414 l 0.107,1.338 4.968,-0.396 -0.078,-0.987 z"
   id="path38" />

		</g>

		<g
   id="POLYLINE_9_">
			<polyline
   points="119.65,197.31 117.829,199.583 118.682,200.271 120.133,198.343 120.925,203.788 122.164,203.608      121.215,197.083 119.65,197.31    "
   id="polyline38" />

		</g>

		<path
   d="m 129.332,200.055 c -0.156,-0.723 -0.412,-1.181 -0.769,-1.378 -0.36,-0.2 -0.954,-0.21 -1.781,-0.035 -0.845,0.18 -1.328,0.5 -1.452,0.961 l -0.022,0.005 -0.236,-1.11 c -0.103,-0.489 -0.089,-0.81 0.042,-0.965 0.131,-0.154 0.516,-0.302 1.151,-0.437 0.438,-0.093 0.734,-0.107 0.89,-0.043 0.156,0.062 0.265,0.246 0.329,0.549 l 0.028,0.147 1.211,-0.259 -0.037,-0.17 c -0.137,-0.644 -0.397,-1.048 -0.783,-1.22 -0.386,-0.173 -1.02,-0.164 -1.901,0.024 -1.208,0.259 -1.908,0.596 -2.096,1.015 -0.192,0.418 -0.109,1.449 0.239,3.085 0.282,1.326 0.609,2.13 0.977,2.407 0.37,0.279 1.131,0.296 2.282,0.05 0.937,-0.2 1.539,-0.479 1.8,-0.838 0.262,-0.358 0.306,-0.955 0.128,-1.788 z m -1.216,1.268 c -0.116,0.146 -0.453,0.276 -1.015,0.397 -0.585,0.125 -0.965,0.138 -1.137,0.039 -0.173,-0.097 -0.317,-0.409 -0.427,-0.934 -0.077,-0.363 -0.045,-0.613 0.096,-0.75 0.14,-0.136 0.498,-0.269 1.074,-0.391 0.541,-0.115 0.892,-0.132 1.053,-0.053 0.161,0.081 0.288,0.341 0.381,0.78 0.099,0.464 0.088,0.767 -0.025,0.912 z"
   id="path39" />

		<path
   d="m 135.075,197.138 c -0.403,-1.418 -0.789,-2.254 -1.161,-2.513 -0.373,-0.254 -1.146,-0.216 -2.32,0.116 -0.905,0.256 -1.473,0.573 -1.701,0.95 -0.23,0.377 -0.228,0.98 0.008,1.816 0.203,0.711 0.486,1.149 0.852,1.305 0.365,0.16 0.979,0.118 1.849,-0.128 0.77,-0.217 1.199,-0.564 1.283,-1.038 l 0.022,-0.005 0.262,0.925 c 0.168,0.591 0.204,0.97 0.108,1.134 -0.096,0.165 -0.448,0.333 -1.06,0.505 -0.565,0.16 -0.923,0.214 -1.08,0.159 -0.155,-0.056 -0.292,-0.284 -0.405,-0.687 l -1.171,0.331 0.062,0.221 c 0.177,0.625 0.465,1.006 0.863,1.141 0.401,0.137 1.053,0.075 1.965,-0.185 1.18,-0.334 1.855,-0.709 2.023,-1.126 0.168,-0.418 0.034,-1.392 -0.399,-2.921 z m -1.499,0.058 c -0.113,0.145 -0.457,0.299 -1.031,0.461 -0.542,0.152 -0.896,0.194 -1.063,0.124 -0.165,-0.068 -0.31,-0.323 -0.432,-0.759 -0.124,-0.436 -0.135,-0.729 -0.034,-0.882 0.1,-0.155 0.4,-0.302 0.897,-0.445 0.609,-0.173 1.002,-0.22 1.183,-0.148 0.184,0.072 0.339,0.344 0.472,0.815 0.118,0.411 0.12,0.689 0.008,0.834 z"
   id="path40" />

		<g
   id="POLYLINE_8_">
			<polyline
   points="137.208,199.995 136.834,198.865 137.886,198.519 138.259,199.647 137.208,199.995    "
   id="polyline40" />

		</g>

		<g
   id="SPLINE_31_">
			<path
   d="m 139.474,199.286 1.03,-0.406 -0.979,-2.491 c -0.273,-0.695 -0.092,-1.167 0.539,-1.416 0.306,-0.121 0.528,-0.143 0.667,-0.066 0.139,0.075 0.278,0.291 0.418,0.649 l 1.046,2.661 1.028,-0.404 -0.986,-2.515 c -0.268,-0.681 -0.09,-1.144 0.538,-1.39 0.5,-0.195 0.87,0.01 1.109,0.617 l 1.031,2.622 1.031,-0.404 -1.12,-2.845 c -0.394,-1.001 -1.086,-1.308 -2.082,-0.916 -0.685,0.269 -1.021,0.708 -1.015,1.317 l -0.019,0.006 c -0.296,-0.495 -0.829,-0.591 -1.607,-0.286 -0.665,0.261 -1.009,0.671 -1.034,1.23 l -0.022,0.003 -0.233,-0.67 -1.031,0.404 z"
   id="path41" />

		</g>

		<g
   id="POLYLINE_7_">
			<polyline
   points="145.24,191.938 147.162,196.137 148.167,195.679 146.247,191.478 145.24,191.938    "
   id="polyline41" />

		</g>

		<g
   id="POLYLINE_6_">
			<polyline
   points="144.418,190.143 144.803,190.98 145.81,190.521 145.424,189.682 144.418,190.143    "
   id="polyline42" />

		</g>

		<g
   id="SPLINE_30_">
			<path
   d="m 150.408,189.671 c -0.316,-0.04 -0.821,0.111 -1.508,0.457 -0.729,0.367 -1.176,0.698 -1.349,0.994 -0.174,0.296 -0.14,0.679 0.099,1.152 0.265,0.526 0.58,0.802 0.946,0.827 0.362,0.026 0.987,-0.185 1.87,-0.629 0.392,-0.196 0.676,-0.122 0.85,0.227 0.183,0.363 -0.038,0.702 -0.662,1.016 -0.605,0.305 -0.978,0.263 -1.123,-0.121 l -0.042,-0.151 -1.028,0.519 0.054,0.103 c 0.24,0.481 0.536,0.743 0.883,0.789 0.347,0.043 0.874,-0.11 1.578,-0.467 0.734,-0.368 1.194,-0.722 1.378,-1.058 0.185,-0.337 0.151,-0.757 -0.101,-1.261 -0.238,-0.471 -0.502,-0.729 -0.792,-0.775 -0.29,-0.045 -0.795,0.093 -1.517,0.413 -0.538,0.237 -0.862,0.358 -0.973,0.36 -0.113,0.003 -0.227,-0.11 -0.342,-0.336 -0.169,-0.334 0.006,-0.63 0.521,-0.891 0.36,-0.182 0.599,-0.271 0.716,-0.269 0.119,0.001 0.238,0.099 0.358,0.285 l 0.052,0.072 0.966,-0.488 c -0.236,-0.469 -0.513,-0.726 -0.834,-0.768 z"
   id="path42" />

		</g>

		<g
   id="SPLINE_29_">
			<path
   d="m 154.676,187.288 c -0.32,-0.024 -0.814,0.154 -1.483,0.534 -0.706,0.404 -1.139,0.758 -1.296,1.063 -0.154,0.305 -0.103,0.687 0.159,1.144 0.292,0.513 0.622,0.772 0.987,0.778 0.366,0.008 0.977,-0.234 1.837,-0.725 0.379,-0.218 0.666,-0.157 0.859,0.183 0.2,0.352 -0.002,0.702 -0.609,1.049 -0.587,0.334 -0.962,0.313 -1.125,-0.064 l -0.052,-0.149 -0.998,0.572 0.058,0.099 c 0.266,0.467 0.573,0.715 0.922,0.743 0.349,0.026 0.868,-0.155 1.552,-0.548 0.711,-0.405 1.153,-0.781 1.322,-1.127 0.167,-0.348 0.11,-0.764 -0.168,-1.252 -0.262,-0.459 -0.538,-0.705 -0.83,-0.735 -0.292,-0.031 -0.79,0.134 -1.494,0.491 -0.522,0.267 -0.842,0.401 -0.954,0.409 -0.111,0.01 -0.232,-0.098 -0.358,-0.317 -0.185,-0.323 -0.026,-0.629 0.475,-0.915 0.349,-0.2 0.583,-0.303 0.7,-0.306 0.118,-0.004 0.243,0.083 0.372,0.267 l 0.056,0.068 0.94,-0.536 c -0.26,-0.46 -0.55,-0.701 -0.872,-0.726 z"
   id="path43" />

		</g>

		<g
   id="POLYLINE_5_">
			<polyline
   points="155.784,186.361 158.221,190.283 159.162,189.699 156.724,185.777 155.784,186.361    "
   id="polyline43" />

		</g>

		<g
   id="POLYLINE_4_">
			<polyline
   points="154.742,184.682 155.228,185.465 156.168,184.882 155.681,184.098 154.742,184.682    "
   id="polyline44" />

		</g>

		<path
   d="m 162.326,184.679 c -0.514,-0.762 -0.964,-1.183 -1.354,-1.264 -0.391,-0.079 -0.955,0.129 -1.693,0.629 -0.76,0.511 -1.173,0.966 -1.236,1.359 -0.066,0.393 0.174,0.993 0.716,1.795 0.565,0.835 1.045,1.298 1.443,1.387 0.395,0.089 0.984,-0.129 1.767,-0.658 0.721,-0.487 1.103,-0.938 1.149,-1.354 0.046,-0.416 -0.218,-1.046 -0.792,-1.894 z m -0.896,2.557 c -0.395,0.267 -0.69,0.361 -0.885,0.284 -0.197,-0.078 -0.49,-0.404 -0.879,-0.981 -0.342,-0.504 -0.506,-0.861 -0.495,-1.068 0.011,-0.208 0.207,-0.44 0.589,-0.698 0.375,-0.254 0.661,-0.348 0.858,-0.282 0.196,0.064 0.458,0.342 0.79,0.829 0.391,0.579 0.587,0.979 0.592,1.199 0.002,0.221 -0.188,0.46 -0.57,0.717 z"
   id="path44" />

		<g
   id="SPLINE_26_">
			<path
   d="m 164.617,186.033 0.881,-0.669 -1.653,-2.183 c -0.427,-0.56 -0.344,-1.066 0.25,-1.516 0.389,-0.297 0.708,-0.323 0.958,-0.079 l 0.215,0.242 0.106,0.139 1.681,2.219 0.881,-0.669 -1.899,-2.503 c -0.615,-0.812 -1.357,-0.888 -2.227,-0.229 -0.599,0.453 -0.815,0.967 -0.65,1.542 l -0.022,0.011 -0.434,-0.646 -0.874,0.662 z"
   id="path45" />

		</g>

		<g
   id="POLYLINE_3_">
			<polyline
   points="168.845,182.763 168.094,181.843 168.95,181.142 169.702,182.061 168.845,182.763    "
   id="polyline45" />

		</g>

		<g
   id="SPLINE_21_">
			<path
   d="m 170.297,175.711 c -0.317,0.042 -0.766,0.318 -1.342,0.827 -0.611,0.539 -0.962,0.974 -1.052,1.304 -0.091,0.33 0.038,0.693 0.388,1.087 0.392,0.442 0.765,0.629 1.123,0.561 0.359,-0.066 0.909,-0.43 1.649,-1.083 0.33,-0.29 0.621,-0.29 0.882,0.002 0.268,0.306 0.141,0.689 -0.384,1.151 -0.506,0.447 -0.879,0.504 -1.115,0.167 l -0.081,-0.135 -0.863,0.762 0.078,0.087 c 0.356,0.402 0.708,0.58 1.054,0.536 0.347,-0.045 0.817,-0.328 1.409,-0.85 0.614,-0.545 0.968,-1.004 1.063,-1.377 0.095,-0.374 -0.047,-0.771 -0.418,-1.194 -0.351,-0.396 -0.671,-0.577 -0.964,-0.547 -0.291,0.029 -0.744,0.29 -1.361,0.784 -0.458,0.367 -0.742,0.566 -0.849,0.597 -0.108,0.031 -0.246,-0.047 -0.415,-0.239 -0.249,-0.28 -0.155,-0.611 0.275,-0.994 0.301,-0.267 0.51,-0.413 0.625,-0.441 0.114,-0.028 0.254,0.031 0.419,0.183 l 0.067,0.056 0.812,-0.715 c -0.349,-0.391 -0.68,-0.568 -1,-0.529 z"
   id="path46" />

		</g>

		<g
   id="SPLINE_20_">
			<path
   d="m 175.361,176.982 -2.618,-2.724 0.827,-0.796 -0.581,-0.607 -0.83,0.796 -0.341,-0.356 c -0.335,-0.348 -0.328,-0.691 0.024,-1.026 0.077,-0.076 0.183,-0.15 0.316,-0.23 l -0.6,-0.624 c -0.151,0.132 -0.268,0.236 -0.347,0.313 -0.479,0.461 -0.734,0.859 -0.758,1.197 -0.028,0.336 0.162,0.715 0.569,1.138 l 0.34,0.355 -0.469,0.451 0.582,0.606 0.471,-0.452 2.617,2.723 z"
   id="path47" />

		</g>

		<g
   id="POLYLINE_2_">
			<polyline
   points="176.65,175.71 175.806,174.876 176.582,174.088 177.428,174.922 176.65,175.71    "
   id="polyline47" />

		</g>

		<g
   id="SPLINE_17_">
			<path
   d="m 179.415,171.351 c 0.011,0.16 -0.111,0.377 -0.368,0.657 -0.327,0.357 -0.593,0.524 -0.8,0.504 -0.205,-0.021 -0.544,-0.249 -1.02,-0.683 -0.491,-0.451 -0.765,-0.775 -0.813,-0.975 -0.05,-0.198 0.075,-0.46 0.373,-0.783 0.419,-0.459 0.827,-0.507 1.225,-0.145 l 0.74,-0.808 c -0.483,-0.442 -0.905,-0.637 -1.269,-0.586 -0.362,0.052 -0.815,0.372 -1.354,0.962 -0.561,0.61 -0.818,1.128 -0.773,1.558 0.042,0.429 0.407,0.956 1.093,1.583 0.699,0.643 1.261,0.963 1.687,0.964 0.427,0.001 0.931,-0.319 1.519,-0.961 0.801,-0.874 1.012,-1.577 0.633,-2.106 l -0.47,-0.522 -0.12,-0.106 -0.742,0.812 c 0.293,0.266 0.446,0.479 0.459,0.635 z"
   id="path48" />

		</g>

		<path
   d="m 183.554,168.024 0.704,-0.854 -2.331,-1.918 c -0.498,-0.41 -0.927,-0.575 -1.291,-0.494 -0.362,0.081 -0.81,0.442 -1.337,1.083 -0.485,0.59 -0.739,1.042 -0.756,1.36 -0.021,0.318 0.184,0.654 0.612,1.004 l 0.718,-0.872 c -0.332,-0.274 -0.318,-0.629 0.039,-1.064 0.248,-0.3 0.459,-0.463 0.627,-0.485 0.17,-0.023 0.396,0.082 0.675,0.311 l 0.577,0.477 -0.013,0.013 c -0.375,-0.096 -0.806,0.15 -1.292,0.74 -0.726,0.883 -0.719,1.63 0.021,2.239 0.733,0.605 1.457,0.477 2.166,-0.387 0.49,-0.593 0.623,-1.119 0.403,-1.577 l 0.021,-0.019 z m -1.167,0.332 c -0.261,0.319 -0.47,0.499 -0.624,0.538 -0.153,0.042 -0.346,-0.034 -0.577,-0.225 -0.334,-0.276 -0.302,-0.654 0.098,-1.135 0.453,-0.554 0.861,-0.683 1.218,-0.389 0.352,0.288 0.312,0.694 -0.115,1.211 z"
   id="path49" />

		<g
   id="POLYLINE_1_">
			<polyline
   points="184.986,166.192 184.041,165.473 184.711,164.593 185.658,165.312 184.986,166.192    "
   id="polyline49" />

		</g>

		<g
   id="SPLINE_8_">
			<path
   d="m 184.336,159.262 2.064,1.45 c 0.695,0.489 0.838,1.021 0.433,1.604 -0.198,0.28 -0.379,0.431 -0.544,0.448 -0.165,0.021 -0.407,-0.084 -0.728,-0.311 l -2.321,-1.63 -0.637,0.906 2.539,1.783 c 0.856,0.601 1.585,0.474 2.187,-0.381 0.446,-0.635 0.498,-1.206 0.159,-1.708 l 0.017,-0.012 0.611,0.505 0.635,-0.905 -3.777,-2.654 z"
   id="path50" />

		</g>

		<g
   id="SPLINE_3_">
			<path
   d="m 187.585,154.636 c -0.293,0.129 -0.645,0.52 -1.053,1.171 -0.433,0.691 -0.648,1.208 -0.64,1.549 0.006,0.341 0.233,0.653 0.678,0.934 0.5,0.313 0.913,0.385 1.239,0.218 0.324,-0.167 0.749,-0.669 1.274,-1.506 0.233,-0.371 0.512,-0.454 0.843,-0.248 0.343,0.217 0.332,0.619 -0.04,1.21 -0.359,0.575 -0.7,0.734 -1.022,0.479 l -0.118,-0.106 -0.609,0.975 0.099,0.062 c 0.454,0.284 0.841,0.357 1.164,0.216 0.319,-0.14 0.692,-0.547 1.109,-1.216 0.436,-0.697 0.646,-1.235 0.63,-1.621 -0.017,-0.384 -0.262,-0.725 -0.741,-1.025 -0.447,-0.279 -0.808,-0.363 -1.078,-0.253 -0.272,0.11 -0.633,0.49 -1.083,1.139 -0.338,0.483 -0.552,0.752 -0.647,0.814 -0.095,0.059 -0.25,0.022 -0.465,-0.113 -0.316,-0.197 -0.322,-0.54 -0.015,-1.031 0.212,-0.342 0.371,-0.542 0.472,-0.602 0.101,-0.059 0.254,-0.04 0.453,0.06 l 0.083,0.032 0.574,-0.916 c -0.443,-0.277 -0.813,-0.352 -1.107,-0.222 z"
   id="path51" />

		</g>

		
		<path
   d="M 108,5.4 C 51.335,5.4 5.4,51.335 5.4,108 5.4,164.665 51.335,210.6 108,210.6 164.665,210.6 210.6,164.665 210.6,108 210.6,51.335 164.665,5.4 108,5.4 Z m 0.069,200.117 -0.005,-6.781 c -0.938,0.008 -2.786,-0.029 -3.722,-0.073 -50.072,-2.021 -89.025,-44.25 -87.005,-94.322 l -6.774,-0.273 c 1.835,-51.996 45.342,-93.811 97.369,-93.585 53.858,-0.038 97.549,43.591 97.586,97.448 0.037,53.858 -43.592,97.549 -97.449,97.586 z"
   id="path53" />

	</g>

</g>
  </g>
</svg>
